<?xml version="1.0" standalone="no"?>
<!DOCTYPE svg PUBLIC "-//W3C//DTD SVG 1.1//EN" "http://www.w3.org/Graphics/SVG/1.1/DTD/svg11.dtd" >
<svg>
<metadata>
Created by FontForge 20120731 at Mon Feb  1 21:38:04 2016
 By ,,,
Copyright 1990-1993 Bitstream Inc.  All rights reserved.
</metadata>
<defs>
<font id="Swiss721BT-Thin" horiz-adv-x="1024" >
  <font-face 
    font-family="Swis721 Th BT"
    font-weight="400"
    font-stretch="normal"
    units-per-em="2048"
    panose-1="2 11 3 3 2 2 2 2 2 4"
    ascent="1638"
    descent="-410"
    x-height="1063"
    cap-height="1473"
    bbox="-344 -483 2202 1972"
    underline-thickness="43"
    underline-position="-190"
    unicode-range="U+0020-F002"
  />
<missing-glyph horiz-adv-x="1229" 
d="M102 -362v1806h1024v-1806h-1024zM217 -248h795v1577h-795v-1577z" />
    <glyph glyph-name=".notdef" horiz-adv-x="1229" 
d="M102 -362v1806h1024v-1806h-1024zM217 -248h795v1577h-795v-1577z" />
    <glyph glyph-name=".null" horiz-adv-x="0" 
 />
    <glyph glyph-name="nonmarkingreturn" horiz-adv-x="532" 
 />
    <glyph glyph-name="space" unicode=" " horiz-adv-x="532" 
 />
    <glyph glyph-name="exclam" unicode="!" horiz-adv-x="629" 
d="M283 0v180h69v-180h-69zM293 367l-19 1103h76l-8 -1103h-49z" />
    <glyph glyph-name="quotedbl" unicode="&#x22;" horiz-adv-x="530" 
d="M358 1434h70v-553h-70v553zM102 1434h70v-553h-70v553z" />
    <glyph glyph-name="numbersign" unicode="#" horiz-adv-x="1575" 
d="M709 870l-101 -290h273l100 290h-272zM819 1452h96l-180 -508h275l180 508h94l-178 -508h326l-23 -74h-332l-102 -290h356l-22 -74h-359l-178 -504h-96l180 504h-276l-181 -504h-94l178 504h-340l23 74h342l106 290h-372l22 74h375z" />
    <glyph glyph-name="dollar" unicode="$" horiz-adv-x="1067" 
d="M555 39q169 17 259.5 100t90.5 221q0 129 -84 206t-266 114v-641zM494 -170v141q-194 19 -299 134.5t-105 312.5v6h65q4 -172 89 -268.5t250 -116.5v655q-191 50 -279 143t-88 244q0 163 99.5 261t267.5 98v92h61v-92q186 -4 285.5 -95t101.5 -259l-59 -1
q-11 145 -92 218t-230 73h-6v-626q212 -37 317 -133t105 -252q0 -179 -107 -278.5t-315 -115.5v-141h-61zM494 764l-1 612q-141 -5 -219.5 -81t-78.5 -208q0 -126 71 -203.5t228 -119.5z" />
    <glyph glyph-name="percent" unicode="%" horiz-adv-x="1489" 
d="M844 279q0 -104 73 -177t177 -73q103 0 176 73t73 177q0 103 -72.5 176t-176.5 73q-105 0 -177.5 -72.5t-72.5 -176.5zM780 279q0 130 91.5 221.5t222.5 91.5q130 0 221.5 -91.5t91.5 -221.5q0 -131 -91.5 -221.5t-221.5 -90.5t-222 91.5t-92 220.5zM299 -33l817 1506h72
l-819 -1506h-70zM82 1159q0 131 91.5 222.5t221.5 91.5q131 0 221.5 -91.5t90.5 -222.5t-90.5 -222t-221.5 -91q-129 0 -221 92t-92 221zM145 1157q0 -104 73.5 -177t176.5 -73q104 0 178 73.5t74 176.5t-73.5 176.5t-178.5 73.5q-104 0 -177 -72.5t-73 -177.5z" />
    <glyph glyph-name="ampersand" unicode="&#x26;" horiz-adv-x="1247" 
d="M1169 0l-161 197q-93 -116 -206.5 -177t-236.5 -61q-200 0 -326 122t-126 314q0 147 92 262.5t274 196.5q-99 123 -137.5 200t-38.5 146q0 121 81.5 197t211.5 76q126 0 204.5 -77t78.5 -200q0 -116 -73.5 -206t-223.5 -159l419 -522q40 78 60 167t20 188l64 -1
q-2 -122 -26.5 -224t-71.5 -183l206 -256h-84zM965 254l-443 547q-167 -60 -254.5 -163t-87.5 -241q0 -158 106.5 -267.5t260.5 -109.5q124 0 232 60.5t186 173.5zM543 881q140 60 206 137t66 178q0 96 -64 157.5t-163 61.5q-91 0 -154 -59.5t-63 -145.5q0 -73 41 -152
t131 -177z" />
    <glyph glyph-name="quotesingle" unicode="'" horiz-adv-x="274" 
d="M102 1434h70v-553h-70v553z" />
    <glyph glyph-name="parenleft" unicode="(" horiz-adv-x="590" 
d="M584 -451h-70q-158 237 -236.5 481.5t-78.5 497.5q0 257 71.5 487t221.5 451h71q-150 -212 -223.5 -441t-73.5 -488q0 -263 78 -505.5t240 -482.5z" />
    <glyph glyph-name="parenright" unicode=")" horiz-adv-x="590" 
d="M12 -451q163 242 241.5 484.5t78.5 503.5q0 259 -73.5 488t-223.5 441h71q150 -221 221.5 -451t71.5 -487q0 -252 -79 -496.5t-238 -482.5h-70z" />
    <glyph glyph-name="asterisk" unicode="*" 
d="M346 893l-53 41l178 223l-262 72l24 69l252 -92l-8 267h70l-8 -267l249 92l27 -69l-262 -72l176 -223l-51 -41l-168 229z" />
    <glyph glyph-name="plus" unicode="+" horiz-adv-x="1706" 
d="M823 1221h62v-580h567v-61h-567v-580h-62v580h-569v61h569v580z" />
    <glyph glyph-name="comma" unicode="," horiz-adv-x="532" 
d="M137 -215l146 391h69l-145 -391h-70z" />
    <glyph glyph-name="hyphen" unicode="-" horiz-adv-x="702" 
d="M78 500v57h545v-57h-545z" />
    <glyph glyph-name="period" unicode="." horiz-adv-x="532" 
d="M233 0v178h66v-178h-66z" />
    <glyph glyph-name="slash" unicode="/" horiz-adv-x="598" 
d="M553 1511h70l-580 -1683h-70z" />
    <glyph glyph-name="zero" unicode="0" horiz-adv-x="1067" 
d="M150 696q0 -327 99 -501.5t286 -174.5q186 0 284.5 173.5t98.5 502.5t-98.5 501.5t-284.5 172.5q-187 0 -286 -173t-99 -501zM80 696q0 355 117.5 545.5t334.5 190.5q219 0 337 -191t118 -545t-118.5 -545.5t-336.5 -191.5q-217 0 -334.5 191t-117.5 546z" />
    <glyph glyph-name="one" unicode="1" horiz-adv-x="1067" 
d="M563 0v1214q-63 -72 -145.5 -106.5t-192.5 -34.5h-18v59q157 4 246.5 69t109.5 190h68v-1391h-68z" />
    <glyph glyph-name="two" unicode="2" horiz-adv-x="1067" 
d="M102 0v100q0 84 11.5 130.5t38.5 86.5q32 54 106.5 118t185.5 134q42 26 120 71q169 98 222 155q52 53 75.5 111t23.5 134q0 149 -89 237.5t-237 88.5q-157 0 -250.5 -94.5t-93.5 -253.5v-23h-72v19q0 191 113 303.5t303 112.5q179 0 289 -106t110 -277
q0 -138 -67.5 -234t-282.5 -223q-275 -164 -358.5 -259t-83.5 -210q0 -24 1 -36.5t3 -23.5h780v-61h-848z" />
    <glyph glyph-name="three" unicode="3" horiz-adv-x="1067" 
d="M94 422h70v-6q0 -184 93 -285.5t261 -101.5q171 0 278 97.5t107 252.5q0 163 -106.5 243t-323.5 80h-41v60q9 0 24.5 -1t22.5 -1q181 0 281 83.5t100 233.5q0 136 -86 212.5t-239 76.5q-158 0 -247 -92t-89 -254v-10h-64v6q0 197 108 304t306 107q172 0 277.5 -95.5
t105.5 -252.5q0 -124 -63.5 -215t-174.5 -127q132 -29 206.5 -122t74.5 -228q0 -190 -125.5 -307t-329.5 -117q-201 0 -313.5 118.5t-112.5 330.5v10z" />
    <glyph glyph-name="four" unicode="4" horiz-adv-x="1067" 
d="M750 0v371h-654v65l660 955h59v-959h158v-61h-158v-371h-65zM752 430v846l-586 -846h586z" />
    <glyph glyph-name="five" unicode="5" horiz-adv-x="1067" 
d="M98 358h66q17 -163 107 -250.5t243 -87.5q177 0 281 109.5t104 296.5q0 175 -103 280t-272 105q-101 0 -182.5 -37t-138.5 -110h-56l115 727h649v-62h-596l-88 -557q62 50 138 74t172 24q191 0 311.5 -125.5t120.5 -326.5q0 -209 -123.5 -335t-327.5 -126
q-180 0 -290.5 106t-129.5 295z" />
    <glyph glyph-name="six" unicode="6" horiz-adv-x="1067" 
d="M901 432q0 189 -94 299.5t-252 110.5q-157 0 -253.5 -112t-96.5 -296q0 -186 93 -297.5t247 -111.5q163 0 259.5 109.5t96.5 297.5zM954 1083h-65q-20 139 -100.5 210t-217.5 71q-203 0 -304 -171t-101 -515q0 -41 0.5 -63t1.5 -39q38 155 140 241t249 86
q189 0 302.5 -127.5t113.5 -343.5q0 -212 -116 -342.5t-298 -130.5q-232 0 -347.5 174.5t-115.5 528.5q0 386 121 575.5t367 189.5q160 0 256.5 -89.5t113.5 -254.5z" />
    <glyph glyph-name="seven" unicode="7" horiz-adv-x="1067" 
d="M315 0q53 370 190 701.5t359 623.5h-745v66h829v-68q-217 -259 -358 -588.5t-207 -734.5h-68z" />
    <glyph glyph-name="eight" unicode="8" horiz-adv-x="1067" 
d="M162 397q0 -162 103 -264t267 -102t268.5 101.5t104.5 260.5q0 156 -100 246t-273 90q-172 0 -271 -88.5t-99 -243.5zM221 1079q0 -130 85.5 -209t225.5 -79t227 79.5t87 208.5q0 130 -86.5 210.5t-227.5 80.5q-140 0 -225.5 -80.5t-85.5 -210.5zM360 764
q-105 44 -159 122t-54 187q0 160 106 258.5t279 98.5q177 0 281.5 -97t104.5 -260q0 -110 -51.5 -185t-159.5 -124q134 -44 202 -137t68 -232q0 -198 -122.5 -316t-328.5 -118q-192 0 -314 119t-122 307q0 141 67.5 235t202.5 142z" />
    <glyph glyph-name="nine" unicode="9" horiz-adv-x="1067" 
d="M166 954q0 -188 94 -298.5t252 -110.5q157 0 254.5 112t97.5 295q0 186 -94 298t-248 112q-163 0 -259.5 -110t-96.5 -298zM113 303h65q20 -138 100.5 -209t217.5 -71q203 0 304 171t101 515q0 41 -0.5 62.5t-1.5 39.5q-38 -156 -140 -242t-249 -86q-189 0 -301.5 127.5
t-112.5 343.5q0 212 115 342.5t297 130.5q233 0 349 -175t116 -527q0 -386 -121.5 -576t-368.5 -190q-160 0 -256.5 90t-113.5 254z" />
    <glyph glyph-name="colon" unicode=":" horiz-adv-x="582" 
d="M256 819v178h68v-178h-68zM256 0v178h68v-178h-68z" />
    <glyph glyph-name="semicolon" unicode=";" horiz-adv-x="582" 
d="M279 819v178h65v-178h-65zM131 -215l143 391h70l-145 -391h-68z" />
    <glyph glyph-name="less" unicode="&#x3c;" horiz-adv-x="1706" 
d="M1442 1112v-70l-1069 -432l1069 -432v-69l-1178 481v41z" />
    <glyph glyph-name="equal" unicode="=" horiz-adv-x="1706" 
d="M254 465h1198v-64h-1198v64zM254 819h1198v-63h-1198v63z" />
    <glyph glyph-name="greater" unicode="&#x3e;" horiz-adv-x="1706" 
d="M264 1112l1178 -481v-41l-1178 -481v69l1067 432l-1067 432v70z" />
    <glyph glyph-name="question" unicode="?" horiz-adv-x="948" 
d="M412 0v176h80v-176h-80zM418 363q1 57 7 109t15 97q10 46 35 86.5t97 115.5q14 14 51 49q97 89 145 157q25 36 37 76t12 88q0 143 -88.5 220t-253.5 77q-164 0 -254 -98.5t-90 -278.5v-6h-68q0 211 112.5 329.5t311.5 118.5q181 0 290.5 -97t109.5 -257q0 -60 -17 -115
t-51 -104q-52 -75 -157 -169q-32 -29 -46 -42q-61 -62 -81.5 -95.5t-28.5 -70.5q-8 -40 -14 -88t-9 -102h-65z" />
    <glyph glyph-name="at" unicode="@" horiz-adv-x="2048" 
d="M1194 317q-47 -87 -124 -137.5t-165 -50.5q-154 0 -234.5 82.5t-80.5 241.5q0 226 135 384t326 158q98 0 162.5 -44t95.5 -132l61 135h66l-138 -546q-16 -64 -20 -86.5t-4 -34.5q0 -45 32.5 -69.5t92.5 -24.5q70 0 141 33t127 91q81 86 126.5 208t45.5 253
q0 270 -203 438t-530 168q-166 0 -309 -47.5t-258 -140.5q-158 -127 -240 -302t-82 -386q0 -327 222.5 -525t592.5 -198q164 0 328.5 50t302.5 142l23 -34q-144 -107 -305.5 -161t-338.5 -54q-190 0 -344.5 45t-271.5 135q-151 115 -225 268t-74 348q0 161 49.5 304
t147.5 262q142 173 343.5 263.5t446.5 90.5q158 0 302 -44t247 -122q127 -98 192.5 -225.5t65.5 -276.5q0 -166 -62 -304t-178 -230q-69 -54 -146.5 -82.5t-156.5 -28.5q-94 0 -141 35.5t-47 105.5q0 7 0.5 16t3.5 29zM1292 723q-23 102 -85 155.5t-158 53.5
q-156 0 -261.5 -139.5t-105.5 -346.5q0 -120 59 -186.5t164 -66.5q115 0 202 73.5t120 198.5z" />
    <glyph glyph-name="A" unicode="A" horiz-adv-x="1176" 
d="M-12 0l569 1473h78l559 -1473h-68l-190 502h-686l-193 -502h-69zM274 563h637l-315 830z" />
    <glyph glyph-name="B" unicode="B" horiz-adv-x="1266" 
d="M168 0v1473h403q152 0 237.5 -15t143.5 -49q76 -45 117 -123.5t41 -177.5q0 -119 -65 -205.5t-187 -130.5q166 -32 247 -125.5t81 -253.5q0 -103 -44.5 -188t-123.5 -133q-61 -39 -150 -55.5t-252 -16.5h-448zM238 793h342q237 0 348.5 77.5t111.5 241.5
q0 161 -103.5 230t-361.5 69h-337v-618zM238 61h364q147 0 215 8.5t117 28.5q86 36 133 116.5t47 191.5q0 174 -121 253.5t-389 79.5h-366v-678z" />
    <glyph glyph-name="C" unicode="C" horiz-adv-x="1395" 
d="M1286 487q-14 -238 -168 -378t-401 -140q-289 0 -451 201.5t-162 562.5q0 364 165.5 568t459.5 204q225 0 378.5 -127.5t174.5 -333.5h-70q-30 190 -160 295t-335 105q-248 0 -394.5 -191t-146.5 -520t142.5 -516.5t388.5 -187.5q225 0 363 123.5t149 334.5h67z" />
    <glyph glyph-name="D" unicode="D" horiz-adv-x="1411" 
d="M238 61h284q166 0 265 17.5t174 56.5q132 70 202 224t70 376q0 187 -49 324t-146 223q-77 69 -189 98t-327 29h-284v-1348zM168 0v1473h338q186 0 291.5 -17t181.5 -55q160 -79 243 -248.5t83 -417.5q0 -249 -83.5 -419t-242.5 -244q-79 -38 -189.5 -55t-283.5 -17h-338z
" />
    <glyph glyph-name="E" unicode="E" horiz-adv-x="1161" 
d="M168 0v1473h899v-66h-829v-608h757v-64h-757v-669h849v-66h-919z" />
    <glyph glyph-name="F" unicode="F" horiz-adv-x="1071" 
d="M168 0v1473h860v-66h-790v-608h698v-64h-698v-735h-70z" />
    <glyph glyph-name="G" unicode="G" horiz-adv-x="1452" 
d="M1280 0v289q-80 -163 -212 -242.5t-323 -79.5q-294 0 -466.5 206.5t-172.5 561.5q0 357 171.5 563.5t467.5 206.5q242 0 392.5 -118t181.5 -332h-70q-35 186 -166 287.5t-338 101.5q-260 0 -413.5 -191t-153.5 -518q0 -326 153 -516t414 -190q245 0 387 148t142 403v63
h-486v62h551v-705h-59z" />
    <glyph glyph-name="H" unicode="H" horiz-adv-x="1405" 
d="M168 0v1473h70v-656h931v656h68v-1473h-68v756h-931v-756h-70z" />
    <glyph glyph-name="I" unicode="I" horiz-adv-x="424" 
d="M178 0v1473h68v-1473h-68z" />
    <glyph glyph-name="J" unicode="J" horiz-adv-x="969" 
d="M80 458l63 1q0 -14 -1 -34t-1 -26q0 -189 75 -280.5t228 -91.5q163 0 233.5 94t70.5 328v1024h67v-1045q0 -240 -91 -351.5t-286 -111.5q-174 0 -267 105t-93 303q0 32 0.5 50.5t1.5 34.5z" />
    <glyph glyph-name="K" unicode="K" horiz-adv-x="1192" 
d="M168 0v1473h70v-830l817 830h88l-582 -590l670 -883h-82l-633 836l-278 -283v-553h-70z" />
    <glyph glyph-name="L" unicode="L" horiz-adv-x="1042" 
d="M170 0v1473h70v-1407h780v-66h-850z" />
    <glyph glyph-name="M" unicode="M" horiz-adv-x="1583" 
d="M168 0v1473h98l527 -1387l526 1387h96v-1473h-61v1386l-531 -1386h-65l-529 1386v-1386h-61z" />
    <glyph glyph-name="N" unicode="N" horiz-adv-x="1397" 
d="M168 0v1473h70l923 -1356v1356h68v-1473h-68l-925 1354v-1354h-68z" />
    <glyph glyph-name="O" unicode="O" horiz-adv-x="1518" 
d="M178 735q0 -330 154 -518t426 -188q271 0 426 188t155 518q0 331 -155 520t-426 189t-425.5 -188.5t-154.5 -520.5zM106 735q0 360 174 565t478 205t478.5 -205.5t174.5 -564.5q0 -358 -174 -563t-479 -205q-304 0 -478 204.5t-174 563.5z" />
    <glyph glyph-name="P" unicode="P" horiz-adv-x="1178" 
d="M569 1473q272 0 401.5 -95t129.5 -295q0 -88 -28.5 -162t-82.5 -128q-61 -62 -151.5 -87.5t-274.5 -25.5h-325v-680h-70v1473h401zM520 1411h-282v-670h280q163 0 229 9t113 30q78 35 123 117.5t45 192.5q0 91 -37.5 159.5t-109.5 108.5q-52 29 -126 41t-235 12z" />
    <glyph glyph-name="Q" unicode="Q" horiz-adv-x="1518" 
d="M1337 -98l-207 170q-70 -53 -167 -79t-220 -26q-294 0 -465.5 206t-171.5 562q0 360 174 565t478 205q301 0 477 -202.5t176 -550.5q0 -209 -57 -368t-172 -271l198 -162zM905 256l41 47l187 -147q101 91 153.5 239.5t52.5 339.5q0 331 -155 520t-426 189t-425.5 -188.5
t-154.5 -520.5t153.5 -518t426.5 -186q99 0 179 21t140 63z" />
    <glyph glyph-name="R" unicode="R" horiz-adv-x="1274" 
d="M168 0v1473h489q270 0 387 -90.5t117 -295.5q0 -141 -65.5 -231t-200.5 -131q93 -18 144.5 -81t62.5 -173q7 -70 12 -190q10 -222 55 -281h-75q-35 43 -45 250q-2 34 -2 51q-1 12 -2 35q-12 209 -68 276q-38 45 -103 64.5t-182 19.5h-454v-696h-70zM238 758h454
q197 0 298.5 82t101.5 241q0 73 -21.5 132t-62.5 102q-50 51 -118 72.5t-233 21.5h-419v-651z" />
    <glyph glyph-name="S" unicode="S" horiz-adv-x="1174" 
d="M92 449h68q12 -194 129.5 -307t306.5 -113q185 0 301.5 96t116.5 248q0 137 -76.5 210.5t-355.5 151.5q-10 3 -28 8q-251 70 -321 134q-51 46 -77.5 108t-26.5 135q0 174 120.5 279.5t321.5 105.5q209 0 336.5 -116.5t134.5 -315.5l-65 1q-3 169 -115 271.5t-295 102.5
q-172 0 -272 -88.5t-100 -239.5q0 -57 22.5 -107t67.5 -91q61 -58 291 -120q19 -5 28 -7q292 -79 385.5 -165t93.5 -239q0 -192 -133 -308t-356 -116q-217 0 -351 128t-151 354z" />
    <glyph glyph-name="T" unicode="T" horiz-adv-x="1042" 
d="M492 0v1409h-459v64h987v-64h-459v-1409h-69z" />
    <glyph glyph-name="U" unicode="U" horiz-adv-x="1374" 
d="M158 1473h67v-926q0 -254 118 -386t345 -132q225 0 344 133t119 385v926h68v-959q0 -256 -141.5 -401.5t-389.5 -145.5q-251 0 -390.5 144t-139.5 403v959z" />
    <glyph glyph-name="V" unicode="V" horiz-adv-x="1075" 
d="M504 0l-510 1473h72l473 -1373l471 1373h71l-512 -1473h-65z" />
    <glyph glyph-name="W" unicode="W" horiz-adv-x="1688" 
d="M410 0l-394 1473h70l360 -1350l357 1350h84l356 -1350l359 1350h69l-393 -1473h-70l-364 1376l-365 -1376h-69z" />
    <glyph glyph-name="X" unicode="X" horiz-adv-x="1085" 
d="M2 0l500 754l-477 719h79l439 -662l436 662h76l-471 -717l499 -756h-77l-467 694l-461 -694h-76z" />
    <glyph glyph-name="Y" unicode="Y" horiz-adv-x="1085" 
d="M508 0v651l-506 822h78l465 -752l459 752h77l-506 -826v-647h-67z" />
    <glyph glyph-name="Z" unicode="Z" horiz-adv-x="1083" 
d="M18 0v68l947 1341h-867v64h940v-70l-946 -1342h971v-61h-1045z" />
    <glyph glyph-name="bracketleft" unicode="[" horiz-adv-x="618" 
d="M582 -422h-346v1892h346v-63h-275v-1767h275v-62z" />
    <glyph glyph-name="backslash" unicode="\" horiz-adv-x="598" 
d="M-27 1511h70l580 -1683h-70z" />
    <glyph glyph-name="bracketright" unicode="]" horiz-adv-x="618" 
d="M45 -422v62h274v1767h-274v63h346v-1892h-346z" />
    <glyph glyph-name="asciicircum" unicode="^" horiz-adv-x="2048" 
d="M973 1456h98l549 -553h-109l-487 483l-489 -483h-109z" />
    <glyph glyph-name="underscore" unicode="_" 
d="M0 -422h1024v-61h-1024v61z" />
    <glyph glyph-name="grave" unicode="`" 
d="M627 1196h-64l-254 328h109z" />
    <glyph glyph-name="a" unicode="a" horiz-adv-x="1038" 
d="M815 608q-25 -34 -224 -57q-32 -4 -50 -6q-227 -29 -315.5 -88.5t-88.5 -173.5q0 -118 70 -182t199 -64q86 0 165.5 27.5t137.5 76.5q59 52 82.5 116.5t23.5 193.5v157zM1012 -6q-11 -1 -30 -3.5t-28 -2.5q-73 0 -106 45t-33 147q-64 -99 -174.5 -153t-253.5 -54
q-142 0 -229.5 82.5t-87.5 216.5q0 141 96 215t328 107q41 6 111 14q210 24 210 109v90q0 108 -74 165.5t-213 57.5q-159 0 -250.5 -69t-99.5 -195h-61q6 149 114.5 235t290.5 86q111 0 190.5 -31t121.5 -91q24 -35 34.5 -79.5t10.5 -140.5v-45v-473q0 -113 20 -148.5
t74 -35.5q10 0 33 3q4 1 6 1v-53z" />
    <glyph glyph-name="b" unicode="b" horiz-adv-x="1171" 
d="M207 528q0 -232 107.5 -365.5t293.5 -133.5q187 0 295.5 133.5t108.5 365.5q0 233 -108.5 366.5t-295.5 133.5q-186 0 -293.5 -133.5t-107.5 -366.5zM141 0v1470h66v-649q55 131 156.5 197.5t244.5 66.5q217 0 343 -149t126 -408t-125.5 -408t-343.5 -149
q-140 0 -239.5 63t-161.5 191v-225h-66z" />
    <glyph glyph-name="c" unicode="c" horiz-adv-x="1063" 
d="M971 342q-19 -171 -131.5 -271t-288.5 -100q-211 0 -336 150.5t-125 406.5q0 259 125 408t342 149q168 0 275 -88t129 -245h-66q-22 127 -113 201.5t-225 74.5q-186 0 -293.5 -133.5t-107.5 -366.5q0 -232 107.5 -365.5t293.5 -133.5q140 0 237 86t115 227h62z" />
    <glyph glyph-name="d" unicode="d" horiz-adv-x="1171" 
d="M965 528q0 233 -108 366.5t-294 133.5t-294.5 -133.5t-108.5 -366.5q0 -232 108.5 -365.5t294.5 -133.5t294 133.5t108 365.5zM1028 1470v-1470h-63v236q-51 -130 -153.5 -197.5t-248.5 -67.5q-218 0 -343.5 149t-125.5 408t126 408t343 149q144 0 249.5 -67t152.5 -189
v641h63z" />
    <glyph glyph-name="e" unicode="e" horiz-adv-x="1071" 
d="M158 584h757q0 201 -100.5 322.5t-263.5 121.5q-170 0 -275.5 -119t-117.5 -325zM965 311q-36 -155 -152 -247.5t-274 -92.5q-208 0 -329.5 150t-121.5 407q0 258 121.5 407.5t329.5 149.5q209 0 327.5 -138.5t118.5 -383.5v-39h-829v-16q0 -215 106 -347t277 -132
q131 0 228.5 75.5t133.5 206.5h64z" />
    <glyph glyph-name="f" unicode="f" horiz-adv-x="498" 
d="M455 1425q-6 0 -18.5 1t-18.5 1q-85 0 -115.5 -40t-30.5 -173v-151h179v-59h-179v-1004h-63v1004h-148v59h148v149q0 158 42 213.5t155 55.5q18 0 28.5 -0.5t19.5 -1.5z" />
    <glyph glyph-name="g" unicode="g" horiz-adv-x="1171" 
d="M965 528q0 233 -108 366.5t-294 133.5t-294.5 -133.5t-108.5 -366.5q0 -232 108.5 -365.5t294.5 -133.5t294 133.5t108 365.5zM965 227q-53 -123 -158.5 -190.5t-247.5 -67.5q-215 0 -340 150t-125 409q0 260 125.5 408.5t343.5 148.5q145 0 251.5 -69t150.5 -191v238h63
v-1006q0 -121 -15.5 -184.5t-51.5 -116.5q-62 -91 -170 -137.5t-256 -46.5q-180 0 -288 85.5t-110 227.5h62q6 -120 99 -188t253 -68q133 0 224.5 45.5t142.5 135.5q25 45 36 105t11 204v108z" />
    <glyph glyph-name="h" unicode="h" horiz-adv-x="1067" 
d="M141 0v1470h66v-581q49 96 141 146t217 50q184 0 274.5 -94t90.5 -286v-705h-66v684q0 182 -70 262t-227 80q-90 0 -158.5 -26.5t-115.5 -79.5t-66.5 -123.5t-19.5 -227.5v-59v-510h-66z" />
    <glyph glyph-name="i" unicode="i" horiz-adv-x="358" 
d="M147 0v1063h64v-1063h-64zM147 1298v172h64v-172h-64z" />
    <glyph glyph-name="j" unicode="j" horiz-adv-x="358" 
d="M150 1298v172h63v-172h-63zM150 1063h63v-1229q0 -161 -39.5 -209.5t-150.5 -48.5h-37v62h22q84 0 113 33t29 186v1206z" />
    <glyph glyph-name="k" unicode="k" horiz-adv-x="938" 
d="M141 0v1470h66v-1013l612 606h80l-387 -387l449 -676h-74l-420 631l-260 -252v-379h-66z" />
    <glyph glyph-name="l" unicode="l" horiz-adv-x="358" 
d="M147 0v1470h64v-1470h-64z" />
    <glyph glyph-name="m" unicode="m" horiz-adv-x="1673" 
d="M141 0v1063h66v-174q51 96 135.5 146t196.5 50q123 0 204.5 -55.5t110.5 -161.5q54 107 141.5 162t204.5 55q167 0 251.5 -95.5t84.5 -284.5v-705h-66v639q0 106 -7 158.5t-23 91.5q-28 65 -91.5 101t-150.5 36q-77 0 -141 -27.5t-107 -78.5q-43 -53 -61.5 -123
t-18.5 -224v-63v-510h-63v639q0 106 -7 158.5t-24 91.5q-28 65 -91.5 101t-149.5 36q-78 0 -142 -27.5t-106 -78.5q-44 -53 -62 -123t-18 -224v-63v-510h-66z" />
    <glyph glyph-name="n" unicode="n" horiz-adv-x="1067" 
d="M141 0v1063h66v-174q49 96 141 146t217 50q184 0 274.5 -94t90.5 -286v-705h-66v684q0 182 -70 262t-227 80q-90 0 -158.5 -26.5t-115.5 -79.5t-66.5 -123.5t-19.5 -227.5v-59v-510h-66z" />
    <glyph glyph-name="o" unicode="o" horiz-adv-x="1116" 
d="M156 528q0 -232 107.5 -365.5t293.5 -133.5t295 133.5t109 365.5q0 233 -109 366.5t-295 133.5t-293.5 -133.5t-107.5 -366.5zM90 528q0 259 125 408t342 149t343 -149t126 -408q0 -258 -126 -407.5t-343 -149.5t-342 149t-125 408z" />
    <glyph glyph-name="p" unicode="p" horiz-adv-x="1171" 
d="M207 528q0 -232 107.5 -365.5t293.5 -133.5q187 0 295.5 133.5t108.5 365.5q0 233 -108.5 366.5t-295.5 133.5q-186 0 -293.5 -133.5t-107.5 -366.5zM141 -422v1485h66v-244q51 131 152.5 198.5t248.5 67.5q218 0 343.5 -148.5t125.5 -408.5q0 -258 -126 -407.5
t-343 -149.5q-145 0 -248.5 66.5t-152.5 191.5v-651h-66z" />
    <glyph glyph-name="q" unicode="q" horiz-adv-x="1171" 
d="M160 528q0 -232 108.5 -365.5t294.5 -133.5t294 133.5t108 365.5q0 233 -108 366.5t-294 133.5t-294.5 -133.5t-108.5 -366.5zM965 229q-50 -125 -153.5 -191.5t-248.5 -66.5q-217 0 -343 149.5t-126 407.5q0 260 125.5 408.5t343.5 148.5q147 0 249 -67.5t153 -198.5
v244h63v-1485h-63v651z" />
    <glyph glyph-name="r" unicode="r" horiz-adv-x="539" 
d="M141 0v1063h66v-191q40 106 120 159.5t197 53.5v-63q-172 -7 -244.5 -120t-72.5 -386v-516h-66z" />
    <glyph glyph-name="s" unicode="s" horiz-adv-x="985" 
d="M166 315q26 -139 112 -210.5t228 -71.5t227.5 66t85.5 175q0 78 -50 126.5t-160 78.5q-19 5 -56 15q-259 66 -336 127q-41 32 -63.5 79.5t-22.5 104.5q0 124 101 202t264 78q152 0 248 -81.5t110 -223.5h-63q-17 121 -95 184.5t-209 63.5q-127 0 -207.5 -60.5
t-80.5 -154.5q0 -157 325 -242l21 -6q199 -51 270.5 -115t71.5 -178q0 -130 -107 -215.5t-272 -85.5q-177 0 -283.5 91t-122.5 253h64z" />
    <glyph glyph-name="t" unicode="t" horiz-adv-x="498" 
d="M262 236q0 -124 20.5 -162.5t73.5 -38.5q21 0 44 3.5t55 12.5v-59q-33 -8 -60 -12.5t-49 -4.5q-80 0 -114.5 44.5t-34.5 148.5v838h-134v57h134v291h65v-291h193v-57h-193v-770z" />
    <glyph glyph-name="u" unicode="u" horiz-adv-x="1067" 
d="M924 1063v-1063h-64v166q-49 -95 -140.5 -145t-217.5 -50q-184 0 -274.5 94.5t-90.5 286.5v711h64v-690q0 -181 70.5 -261.5t228.5 -80.5q90 0 158.5 26.5t115.5 79.5t66.5 123.5t19.5 226.5v60v516h64z" />
    <glyph glyph-name="v" unicode="v" horiz-adv-x="909" 
d="M412 0l-396 1063h68l365 -987l378 987h68l-410 -1063h-73z" />
    <glyph glyph-name="w" unicode="w" horiz-adv-x="1370" 
d="M365 0l-338 1063h67l303 -963l254 963h60l260 -963l307 963h65l-339 -1063h-66l-258 948l-250 -948h-65z" />
    <glyph glyph-name="x" unicode="x" horiz-adv-x="840" 
d="M66 0h-76l389 549l-373 514h78l336 -461l328 461h75l-366 -514l393 -549h-76l-356 498z" />
    <glyph glyph-name="y" unicode="y" horiz-adv-x="895" 
d="M416 -162q-59 -154 -111 -209t-129 -55q-25 0 -42.5 3t-31.5 9v62q22 -6 41 -9.5t35 -3.5q49 0 81.5 28.5t57.5 94.5l91 234l-396 1071h64l366 -987l367 987h70z" />
    <glyph glyph-name="z" unicode="z" horiz-adv-x="895" 
d="M35 0v76l733 923h-692v64h762v-76l-734 -924h756v-63h-825z" />
    <glyph glyph-name="braceleft" unicode="{" 
d="M844 1477v-70h-37q-139 0 -188.5 -53.5t-49.5 -220.5v-242q0 -178 -42 -252.5t-150 -108.5q108 -33 150 -107.5t42 -252.5v-242q0 -167 49.5 -220.5t188.5 -53.5h37v-68h-33q-187 0 -255.5 76t-68.5 305v238q0 161 -58.5 226t-203.5 65q-7 0 -21.5 -1t-23.5 -1l1 73
q9 -1 19.5 -1.5t30.5 -0.5q140 0 198 65.5t58 225.5v238q0 230 68.5 306.5t255.5 76.5h33z" />
    <glyph glyph-name="bar" unicode="|" 
d="M475 1565h74v-2048h-74v2048z" />
    <glyph glyph-name="braceright" unicode="}" 
d="M182 1477h33q186 0 254 -76.5t68 -306.5v-238q0 -160 58 -225.5t200 -65.5q20 0 30.5 0.5t20.5 1.5v-73q-9 0 -23.5 1t-21.5 1q-146 0 -205 -65.5t-59 -225.5v-238q0 -229 -68 -305t-254 -76h-33v70h39q138 0 186 52t48 220v242q0 176 43 251.5t151 108.5
q-108 34 -151 109.5t-43 251.5v242q0 169 -48.5 221.5t-187.5 52.5h-37v70z" />
    <glyph glyph-name="asciitilde" unicode="~" horiz-adv-x="1706" 
d="M1530 729v-72q-105 -73 -201.5 -110t-185.5 -37q-60 0 -121 13t-167 52q-13 5 -38 14q-166 62 -252 62q-81 0 -171 -37t-216 -125v74q102 74 198.5 111t188.5 37q44 0 92 -9.5t101 -27.5q30 -10 87 -32q197 -73 298 -73q82 0 173.5 38t213.5 122z" />
    <glyph glyph-name="Adieresis" unicode="&#xc4;" horiz-adv-x="1176" 
d="M-12 0l569 1473h78l559 -1473h-68l-190 502h-686l-193 -502h-69zM274 563h637l-315 830zM721 1702v115h94v-115h-94zM405 1702v115h92v-115h-92z" />
    <glyph glyph-name="Aring" unicode="&#xc5;" horiz-adv-x="1176" 
d="M428 1749q0 -70 49 -118t119 -48q71 0 118.5 47.5t47.5 118.5t-47.5 118.5t-118.5 47.5q-69 0 -118.5 -48.5t-49.5 -117.5zM371 1747q0 94 65.5 159.5t159.5 65.5q95 0 159 -64.5t64 -160.5q0 -94 -64.5 -158.5t-158.5 -64.5t-159.5 65t-65.5 158zM-12 0l569 1473h78
l559 -1473h-68l-190 502h-686l-193 -502h-69zM274 563h637l-315 830z" />
    <glyph glyph-name="Ccedilla" unicode="&#xc7;" horiz-adv-x="1395" 
d="M1286 487q-14 -238 -168 -378t-401 -140q-289 0 -451 201.5t-162 562.5q0 364 165.5 568t459.5 204q225 0 378.5 -127.5t174.5 -333.5h-70q-30 190 -160 295t-335 105q-248 0 -394.5 -191t-146.5 -520t142.5 -516.5t388.5 -187.5q225 0 363 123.5t149 334.5h67zM535 -414
v56q60 -16 116 -23.5t109 -7.5q67 0 104 27.5t37 76.5q0 59 -39.5 87t-122.5 28q-18 0 -28 -0.5t-19 -1.5v172h41v-121h25q101 0 151 -38t50 -115q0 -82 -53 -126t-150 -44q-44 0 -93 6.5t-128 23.5z" />
    <glyph glyph-name="Eacute" unicode="&#xc9;" horiz-adv-x="1161" 
d="M168 0v1473h899v-66h-829v-608h757v-64h-757v-669h849v-66h-919zM516 1616l209 328h109l-254 -328h-64z" />
    <glyph glyph-name="Ntilde" unicode="&#xd1;" horiz-adv-x="1397" 
d="M168 0v1473h70l923 -1356v1356h68v-1473h-68l-925 1354v-1354h-68zM964 1847q-27 -75 -62.5 -108t-90.5 -33q-14 0 -31.5 2.5t-35.5 7.5l-114 27q-12 3 -24.5 4.5t-26.5 1.5q-28 0 -50 -15.5t-42 -51.5h-55q21 72 58.5 106.5t94.5 34.5q15 0 49 -7q5 -1 7 -1l114 -27
q21 -5 35.5 -7.5t24.5 -2.5q32 0 54 17t38 52h57z" />
    <glyph glyph-name="Odieresis" unicode="&#xd6;" horiz-adv-x="1518" 
d="M178 735q0 -330 154 -518t426 -188q271 0 426 188t155 518q0 331 -155 520t-426 189t-425.5 -188.5t-154.5 -520.5zM106 735q0 360 174 565t478 205t478.5 -205.5t174.5 -564.5q0 -358 -174 -563t-479 -205q-304 0 -478 204.5t-174 563.5zM871 1702v115h94v-115h-94z
M555 1702v115h92v-115h-92z" />
    <glyph glyph-name="Udieresis" unicode="&#xdc;" horiz-adv-x="1374" 
d="M158 1473h67v-926q0 -254 118 -386t345 -132q225 0 344 133t119 385v926h68v-959q0 -256 -141.5 -401.5t-389.5 -145.5q-251 0 -390.5 144t-139.5 403v959zM799 1702v115h94v-115h-94zM483 1702v115h92v-115h-92z" />
    <glyph glyph-name="aacute" unicode="&#xe1;" horiz-adv-x="1038" 
d="M815 608q-25 -34 -224 -57q-32 -4 -50 -6q-227 -29 -315.5 -88.5t-88.5 -173.5q0 -118 70 -182t199 -64q86 0 165.5 27.5t137.5 76.5q59 52 82.5 116.5t23.5 193.5v157zM1012 -6q-11 -1 -30 -3.5t-28 -2.5q-73 0 -106 45t-33 147q-64 -99 -174.5 -153t-253.5 -54
q-142 0 -229.5 82.5t-87.5 216.5q0 141 96 215t328 107q41 6 111 14q210 24 210 109v90q0 108 -74 165.5t-213 57.5q-159 0 -250.5 -69t-99.5 -195h-61q6 149 114.5 235t290.5 86q111 0 190.5 -31t121.5 -91q24 -35 34.5 -79.5t10.5 -140.5v-45v-473q0 -113 20 -148.5
t74 -35.5q10 0 33 3q4 1 6 1v-53zM385 1196l209 328h109l-254 -328h-64z" />
    <glyph glyph-name="agrave" unicode="&#xe0;" horiz-adv-x="1038" 
d="M815 608q-25 -34 -224 -57q-32 -4 -50 -6q-227 -29 -315.5 -88.5t-88.5 -173.5q0 -118 70 -182t199 -64q86 0 165.5 27.5t137.5 76.5q59 52 82.5 116.5t23.5 193.5v157zM1012 -6q-11 -1 -30 -3.5t-28 -2.5q-73 0 -106 45t-33 147q-64 -99 -174.5 -153t-253.5 -54
q-142 0 -229.5 82.5t-87.5 216.5q0 141 96 215t328 107q41 6 111 14q210 24 210 109v90q0 108 -74 165.5t-213 57.5q-159 0 -250.5 -69t-99.5 -195h-61q6 149 114.5 235t290.5 86q111 0 190.5 -31t121.5 -91q24 -35 34.5 -79.5t10.5 -140.5v-45v-473q0 -113 20 -148.5
t74 -35.5q10 0 33 3q4 1 6 1v-53zM615 1196h-64l-254 328h109z" />
    <glyph glyph-name="acircumflex" unicode="&#xe2;" horiz-adv-x="1038" 
d="M815 608q-25 -34 -224 -57q-32 -4 -50 -6q-227 -29 -315.5 -88.5t-88.5 -173.5q0 -118 70 -182t199 -64q86 0 165.5 27.5t137.5 76.5q59 52 82.5 116.5t23.5 193.5v157zM1012 -6q-11 -1 -30 -3.5t-28 -2.5q-73 0 -106 45t-33 147q-64 -99 -174.5 -153t-253.5 -54
q-142 0 -229.5 82.5t-87.5 216.5q0 141 96 215t328 107q41 6 111 14q210 24 210 109v90q0 108 -74 165.5t-213 57.5q-159 0 -250.5 -69t-99.5 -195h-61q6 149 114.5 235t290.5 86q111 0 190.5 -31t121.5 -91q24 -35 34.5 -79.5t10.5 -140.5v-45v-473q0 -113 20 -148.5
t74 -35.5q10 0 33 3q4 1 6 1v-53zM246 1196l205 328h98l203 -328h-62l-190 270l-190 -270h-64z" />
    <glyph glyph-name="adieresis" unicode="&#xe4;" horiz-adv-x="1038" 
d="M815 608q-25 -34 -224 -57q-32 -4 -50 -6q-227 -29 -315.5 -88.5t-88.5 -173.5q0 -118 70 -182t199 -64q86 0 165.5 27.5t137.5 76.5q59 52 82.5 116.5t23.5 193.5v157zM1012 -6q-11 -1 -30 -3.5t-28 -2.5q-73 0 -106 45t-33 147q-64 -99 -174.5 -153t-253.5 -54
q-142 0 -229.5 82.5t-87.5 216.5q0 141 96 215t328 107q41 6 111 14q210 24 210 109v90q0 108 -74 165.5t-213 57.5q-159 0 -250.5 -69t-99.5 -195h-61q6 149 114.5 235t290.5 86q111 0 190.5 -31t121.5 -91q24 -35 34.5 -79.5t10.5 -140.5v-45v-473q0 -113 20 -148.5
t74 -35.5q10 0 33 3q4 1 6 1v-53zM611 1282v115h94v-115h-94zM295 1282v115h92v-115h-92z" />
    <glyph glyph-name="atilde" unicode="&#xe3;" horiz-adv-x="1038" 
d="M815 608q-25 -34 -224 -57q-32 -4 -50 -6q-227 -29 -315.5 -88.5t-88.5 -173.5q0 -118 70 -182t199 -64q86 0 165.5 27.5t137.5 76.5q59 52 82.5 116.5t23.5 193.5v157zM1012 -6q-11 -1 -30 -3.5t-28 -2.5q-73 0 -106 45t-33 147q-64 -99 -174.5 -153t-253.5 -54
q-142 0 -229.5 82.5t-87.5 216.5q0 141 96 215t328 107q41 6 111 14q210 24 210 109v90q0 108 -74 165.5t-213 57.5q-159 0 -250.5 -69t-99.5 -195h-61q6 149 114.5 235t290.5 86q111 0 190.5 -31t121.5 -91q24 -35 34.5 -79.5t10.5 -140.5v-45v-473q0 -113 20 -148.5
t74 -35.5q10 0 33 3q4 1 6 1v-53zM766 1427q-27 -75 -62.5 -108t-90.5 -33q-14 0 -31.5 2.5t-35.5 7.5l-114 27q-12 3 -24.5 4.5t-26.5 1.5q-28 0 -50 -15.5t-42 -51.5h-55q21 72 58.5 106.5t94.5 34.5q15 0 49 -7q5 -1 7 -1l114 -27q21 -5 35.5 -7.5t24.5 -2.5q32 0 54 17
t38 52h57z" />
    <glyph glyph-name="aring" unicode="&#xe5;" horiz-adv-x="1038" 
d="M346 1364q0 -70 48.5 -119t117.5 -49q70 0 118 48.5t48 119.5t-47.5 118.5t-118.5 47.5q-69 0 -117.5 -48.5t-48.5 -117.5zM289 1362q0 94 64.5 158.5t158.5 64.5q95 0 159 -64t64 -159q0 -94 -64.5 -158.5t-158.5 -64.5t-158.5 64.5t-64.5 158.5zM815 608
q-25 -34 -224 -57q-32 -4 -50 -6q-227 -29 -315.5 -88.5t-88.5 -173.5q0 -118 70 -182t199 -64q86 0 165.5 27.5t137.5 76.5q59 52 82.5 116.5t23.5 193.5v157zM1012 -6q-11 -1 -30 -3.5t-28 -2.5q-73 0 -106 45t-33 147q-64 -99 -174.5 -153t-253.5 -54q-142 0 -229.5 82.5
t-87.5 216.5q0 141 96 215t328 107q41 6 111 14q210 24 210 109v90q0 108 -74 165.5t-213 57.5q-159 0 -250.5 -69t-99.5 -195h-61q6 149 114.5 235t290.5 86q111 0 190.5 -31t121.5 -91q24 -35 34.5 -79.5t10.5 -140.5v-45v-473q0 -113 20 -148.5t74 -35.5q10 0 33 3
q4 1 6 1v-53z" />
    <glyph glyph-name="ccedilla" unicode="&#xe7;" horiz-adv-x="1063" 
d="M971 342q-19 -171 -131.5 -271t-288.5 -100q-211 0 -336 150.5t-125 406.5q0 259 125 408t342 149q168 0 275 -88t129 -245h-66q-22 127 -113 201.5t-225 74.5q-186 0 -293.5 -133.5t-107.5 -366.5q0 -232 107.5 -365.5t293.5 -133.5q140 0 237 86t115 227h62zM365 -414
v56q60 -16 116 -23.5t109 -7.5q67 0 104 27.5t37 76.5q0 59 -39.5 87t-122.5 28q-18 0 -28 -0.5t-19 -1.5v172h41v-121h25q101 0 151 -38t50 -115q0 -82 -53 -126t-150 -44q-44 0 -93 6.5t-128 23.5z" />
    <glyph glyph-name="eacute" unicode="&#xe9;" horiz-adv-x="1071" 
d="M158 584h757q0 201 -100.5 322.5t-263.5 121.5q-170 0 -275.5 -119t-117.5 -325zM965 311q-36 -155 -152 -247.5t-274 -92.5q-208 0 -329.5 150t-121.5 407q0 258 121.5 407.5t329.5 149.5q209 0 327.5 -138.5t118.5 -383.5v-39h-829v-16q0 -215 106 -347t277 -132
q131 0 228.5 75.5t133.5 206.5h64zM430 1196l209 328h109l-254 -328h-64z" />
    <glyph glyph-name="egrave" unicode="&#xe8;" horiz-adv-x="1071" 
d="M158 584h757q0 201 -100.5 322.5t-263.5 121.5q-170 0 -275.5 -119t-117.5 -325zM965 311q-36 -155 -152 -247.5t-274 -92.5q-208 0 -329.5 150t-121.5 407q0 258 121.5 407.5t329.5 149.5q209 0 327.5 -138.5t118.5 -383.5v-39h-829v-16q0 -215 106 -347t277 -132
q131 0 228.5 75.5t133.5 206.5h64zM660 1196h-64l-254 328h109z" />
    <glyph glyph-name="ecircumflex" unicode="&#xea;" horiz-adv-x="1071" 
d="M158 584h757q0 201 -100.5 322.5t-263.5 121.5q-170 0 -275.5 -119t-117.5 -325zM965 311q-36 -155 -152 -247.5t-274 -92.5q-208 0 -329.5 150t-121.5 407q0 258 121.5 407.5t329.5 149.5q209 0 327.5 -138.5t118.5 -383.5v-39h-829v-16q0 -215 106 -347t277 -132
q131 0 228.5 75.5t133.5 206.5h64zM291 1196l205 328h98l203 -328h-62l-190 270l-190 -270h-64z" />
    <glyph glyph-name="edieresis" unicode="&#xeb;" horiz-adv-x="1071" 
d="M158 584h757q0 201 -100.5 322.5t-263.5 121.5q-170 0 -275.5 -119t-117.5 -325zM965 311q-36 -155 -152 -247.5t-274 -92.5q-208 0 -329.5 150t-121.5 407q0 258 121.5 407.5t329.5 149.5q209 0 327.5 -138.5t118.5 -383.5v-39h-829v-16q0 -215 106 -347t277 -132
q131 0 228.5 75.5t133.5 206.5h64zM656 1282v115h94v-115h-94zM340 1282v115h92v-115h-92z" />
    <glyph glyph-name="iacute" unicode="&#xed;" horiz-adv-x="358" 
d="M147 0v1063h64v-1063h-64zM65 1196l209 328h109l-254 -328h-64z" />
    <glyph glyph-name="igrave" unicode="&#xec;" horiz-adv-x="358" 
d="M147 0v1063h64v-1063h-64zM295 1196h-64l-254 328h109z" />
    <glyph glyph-name="icircumflex" unicode="&#xee;" horiz-adv-x="358" 
d="M147 0v1063h64v-1063h-64zM-74 1196l205 328h98l203 -328h-62l-190 270l-190 -270h-64z" />
    <glyph glyph-name="idieresis" unicode="&#xef;" horiz-adv-x="358" 
d="M147 0v1063h64v-1063h-64zM291 1282v115h94v-115h-94zM-25 1282v115h92v-115h-92z" />
    <glyph glyph-name="ntilde" unicode="&#xf1;" horiz-adv-x="1067" 
d="M141 0v1063h66v-174q49 96 141 146t217 50q184 0 274.5 -94t90.5 -286v-705h-66v684q0 182 -70 262t-227 80q-90 0 -158.5 -26.5t-115.5 -79.5t-66.5 -123.5t-19.5 -227.5v-59v-510h-66zM801 1427q-27 -75 -62.5 -108t-90.5 -33q-14 0 -31.5 2.5t-35.5 7.5l-114 27
q-12 3 -24.5 4.5t-26.5 1.5q-28 0 -50 -15.5t-42 -51.5h-55q21 72 58.5 106.5t94.5 34.5q15 0 49 -7q5 -1 7 -1l114 -27q21 -5 35.5 -7.5t24.5 -2.5q32 0 54 17t38 52h57z" />
    <glyph glyph-name="oacute" unicode="&#xf3;" horiz-adv-x="1116" 
d="M156 528q0 -232 107.5 -365.5t293.5 -133.5t295 133.5t109 365.5q0 233 -109 366.5t-295 133.5t-293.5 -133.5t-107.5 -366.5zM90 528q0 259 125 408t342 149t343 -149t126 -408q0 -258 -126 -407.5t-343 -149.5t-342 149t-125 408zM444 1196l209 328h109l-254 -328h-64z
" />
    <glyph glyph-name="ograve" unicode="&#xf2;" horiz-adv-x="1116" 
d="M156 528q0 -232 107.5 -365.5t293.5 -133.5t295 133.5t109 365.5q0 233 -109 366.5t-295 133.5t-293.5 -133.5t-107.5 -366.5zM90 528q0 259 125 408t342 149t343 -149t126 -408q0 -258 -126 -407.5t-343 -149.5t-342 149t-125 408zM674 1196h-64l-254 328h109z" />
    <glyph glyph-name="ocircumflex" unicode="&#xf4;" horiz-adv-x="1116" 
d="M156 528q0 -232 107.5 -365.5t293.5 -133.5t295 133.5t109 365.5q0 233 -109 366.5t-295 133.5t-293.5 -133.5t-107.5 -366.5zM90 528q0 259 125 408t342 149t343 -149t126 -408q0 -258 -126 -407.5t-343 -149.5t-342 149t-125 408zM305 1196l205 328h98l203 -328h-62
l-190 270l-190 -270h-64z" />
    <glyph glyph-name="odieresis" unicode="&#xf6;" horiz-adv-x="1116" 
d="M156 528q0 -232 107.5 -365.5t293.5 -133.5t295 133.5t109 365.5q0 233 -109 366.5t-295 133.5t-293.5 -133.5t-107.5 -366.5zM90 528q0 259 125 408t342 149t343 -149t126 -408q0 -258 -126 -407.5t-343 -149.5t-342 149t-125 408zM670 1282v115h94v-115h-94zM354 1282
v115h92v-115h-92z" />
    <glyph glyph-name="otilde" unicode="&#xf5;" horiz-adv-x="1116" 
d="M156 528q0 -232 107.5 -365.5t293.5 -133.5t295 133.5t109 365.5q0 233 -109 366.5t-295 133.5t-293.5 -133.5t-107.5 -366.5zM90 528q0 259 125 408t342 149t343 -149t126 -408q0 -258 -126 -407.5t-343 -149.5t-342 149t-125 408zM825 1427q-27 -75 -62.5 -108
t-90.5 -33q-14 0 -31.5 2.5t-35.5 7.5l-114 27q-12 3 -24.5 4.5t-26.5 1.5q-28 0 -50 -15.5t-42 -51.5h-55q21 72 58.5 106.5t94.5 34.5q15 0 49 -7q5 -1 7 -1l114 -27q21 -5 35.5 -7.5t24.5 -2.5q32 0 54 17t38 52h57z" />
    <glyph glyph-name="uacute" unicode="&#xfa;" horiz-adv-x="1067" 
d="M924 1063v-1063h-64v166q-49 -95 -140.5 -145t-217.5 -50q-184 0 -274.5 94.5t-90.5 286.5v711h64v-690q0 -181 70.5 -261.5t228.5 -80.5q90 0 158.5 26.5t115.5 79.5t66.5 123.5t19.5 226.5v60v516h64zM420 1196l209 328h109l-254 -328h-64z" />
    <glyph glyph-name="ugrave" unicode="&#xf9;" horiz-adv-x="1067" 
d="M924 1063v-1063h-64v166q-49 -95 -140.5 -145t-217.5 -50q-184 0 -274.5 94.5t-90.5 286.5v711h64v-690q0 -181 70.5 -261.5t228.5 -80.5q90 0 158.5 26.5t115.5 79.5t66.5 123.5t19.5 226.5v60v516h64zM650 1196h-64l-254 328h109z" />
    <glyph glyph-name="ucircumflex" unicode="&#xfb;" horiz-adv-x="1067" 
d="M924 1063v-1063h-64v166q-49 -95 -140.5 -145t-217.5 -50q-184 0 -274.5 94.5t-90.5 286.5v711h64v-690q0 -181 70.5 -261.5t228.5 -80.5q90 0 158.5 26.5t115.5 79.5t66.5 123.5t19.5 226.5v60v516h64zM281 1196l205 328h98l203 -328h-62l-190 270l-190 -270h-64z" />
    <glyph glyph-name="udieresis" unicode="&#xfc;" horiz-adv-x="1067" 
d="M924 1063v-1063h-64v166q-49 -95 -140.5 -145t-217.5 -50q-184 0 -274.5 94.5t-90.5 286.5v711h64v-690q0 -181 70.5 -261.5t228.5 -80.5q90 0 158.5 26.5t115.5 79.5t66.5 123.5t19.5 226.5v60v516h64zM646 1282v115h94v-115h-94zM330 1282v115h92v-115h-92z" />
    <glyph glyph-name="dagger" unicode="&#x2020;" 
d="M479 -215v1192h-401v59h401v437h64v-437h403v-59h-403v-1192h-64z" />
    <glyph glyph-name="degree" unicode="&#xb0;" horiz-adv-x="674" 
d="M338 1397q-91 0 -155 -64t-64 -155q0 -92 64 -156t155 -64t154 64t63 156q0 91 -63.5 155t-153.5 64zM338 1448q110 0 189 -79.5t79 -190.5t-79 -190t-191 -79q-113 0 -190.5 78t-77.5 191q0 112 79 191t191 79z" />
    <glyph glyph-name="cent" unicode="&#xa2;" horiz-adv-x="1067" 
d="M354 86l309 928q-24 7 -51.5 10.5t-60.5 3.5q-178 0 -288.5 -135t-110.5 -354q0 -172 49.5 -283t152.5 -170zM231 -287l103 305q-124 72 -188 198.5t-64 301.5q0 264 128.5 418t348.5 154q30 0 61 -4.5t62 -12.5l82 240h61l-86 -258q94 -37 151 -113.5t71 -183.5h-64
q-20 90 -64 150t-112 87l-313 -936q42 -13 78.5 -19.5t68.5 -6.5q140 0 239.5 87t114.5 222h66q-19 -166 -134.5 -269.5t-281.5 -103.5q-41 0 -83 6t-87 19l-96 -281h-62z" />
    <glyph glyph-name="sterling" unicode="&#xa3;" horiz-adv-x="1067" 
d="M68 55q129 89 196.5 197.5t67.5 226.5q0 42 -10.5 89.5t-30.5 101.5h-232v59h199q-79 133 -111 213t-32 139q0 154 116.5 254.5t298.5 100.5q199 0 309 -115t111 -323l-63 -1q-8 183 -98 280t-252 97q-153 0 -250 -82t-97 -209q0 -57 33.5 -136.5t116.5 -217.5h293v-59
h-266q18 -48 27 -93.5t9 -89.5q0 -101 -46 -196t-142 -189q43 12 74.5 17.5t54.5 5.5q67 0 185 -45t169 -45q72 0 143 35t122 96l43 -51q-75 -75 -150 -111.5t-156 -36.5q-67 0 -193 45t-190 45q-45 0 -95.5 -15.5t-106.5 -47.5z" />
    <glyph glyph-name="section" unicode="&#xa7;" 
d="M172 145h59v-26q0 -124 67.5 -192t190.5 -68q125 0 197 62.5t72 170.5q0 74 -39 126t-127 95l-268 131q-107 53 -159 122.5t-52 158.5q0 94 49.5 167t144.5 120q-51 42 -75.5 92.5t-24.5 114.5q0 125 85.5 205.5t221.5 80.5q153 0 235 -87.5t82 -250.5h-63
q0 134 -63.5 205.5t-182.5 71.5q-111 0 -180.5 -62.5t-69.5 -160.5q0 -78 46.5 -131.5t166.5 -108.5l158 -74q137 -63 201.5 -139.5t64.5 -175.5q0 -91 -48.5 -162t-147.5 -125q52 -38 79 -94.5t27 -126.5q0 -127 -89.5 -206t-233.5 -79q-155 0 -240.5 80t-85.5 223
q0 18 0.5 27t1.5 16zM340 502l328 -160q95 55 137.5 111.5t42.5 128.5q0 83 -52.5 146.5t-162.5 115.5l-271 125q-93 -37 -139.5 -95.5t-46.5 -140.5q0 -74 41.5 -133t122.5 -98z" />
    <glyph glyph-name="bullet" unicode="&#x2022;" horiz-adv-x="1208" 
d="M307 762q0 123 87 209t210 86q122 0 208.5 -86.5t86.5 -208.5t-87.5 -209.5t-209.5 -87.5q-123 0 -209 87t-86 210z" />
    <glyph glyph-name="paragraph" unicode="&#xb6;" 
d="M494 1479h432v-58h-133v-1421h-58v1421h-196v-1421h-60v782q-175 8 -278 102t-103 246q0 157 108 253t288 96z" />
    <glyph glyph-name="germandbls" unicode="&#xdf;" horiz-adv-x="999" 
d="M141 0v1022q0 147 13 212t43 114q43 69 116 106t168 37q174 0 270.5 -95.5t96.5 -267.5q0 -116 -50 -192t-151 -113q130 -32 198 -133.5t68 -263.5q0 -217 -104.5 -333t-300.5 -116q-11 0 -25.5 1t-42.5 4v65h5q41 -4 59 -4q166 0 252 97t86 284q0 184 -92 277.5
t-275 93.5h-35v57q7 0 21.5 -1t21.5 -1q145 0 219 69.5t74 204.5q0 148 -76.5 229t-216.5 81q-80 0 -143.5 -35t-95.5 -96q-19 -36 -27 -89t-8 -192v-1022h-68z" />
    <glyph glyph-name="registered" unicode="&#xae;" horiz-adv-x="1706" 
d="M662 1083v-323h190q155 0 211.5 36.5t56.5 129.5q0 81 -64 119t-202 38h-192zM573 1155h304q180 0 263 -56.5t83 -178.5q0 -88 -57 -147.5t-150 -70.5l192 -397h-104l-182 383h-260v-383h-89v850zM852 1382q-136 0 -255 -49t-212 -143q-95 -97 -146 -218.5t-51 -252.5
q0 -130 51.5 -250.5t147.5 -216.5t216 -147.5t249 -51.5q131 0 254 52t221 149q94 92 142.5 210t48.5 255q0 133 -50 253.5t-145 215.5q-97 96 -216.5 145t-254.5 49zM852 1446q149 0 281 -54t237 -157q103 -103 157 -235.5t54 -280.5q0 -150 -53 -279.5t-156 -230.5
q-107 -106 -241.5 -162.5t-278.5 -56.5t-276 55t-236 160q-104 104 -159.5 236.5t-55.5 277.5q0 144 55.5 277t159.5 239q102 104 232 157.5t280 53.5z" />
    <glyph glyph-name="copyright" unicode="&#xa9;" horiz-adv-x="1706" 
d="M1182 922h-80q-22 87 -87.5 136.5t-160.5 49.5q-136 0 -213.5 -103.5t-77.5 -287.5q0 -176 79.5 -280.5t211.5 -104.5q101 0 173 57.5t89 151.5h74q-11 -121 -108 -199t-236 -78q-169 0 -270 123t-101 330q0 210 104.5 333.5t280.5 123.5q128 0 218 -70.5t104 -181.5z
M852 1382q-136 0 -254 -48.5t-211 -143.5q-96 -97 -147.5 -219t-51.5 -252q0 -131 51 -251.5t146 -215.5q96 -96 216.5 -147.5t250.5 -51.5t252 52t221 149q94 91 143.5 210t49.5 255q0 135 -49.5 255t-143.5 214q-96 95 -216 144.5t-257 49.5zM852 1446q150 0 281.5 -54
t236.5 -159q103 -103 157 -235t54 -279q0 -150 -53.5 -280.5t-155.5 -231.5q-106 -105 -241 -161t-279 -56t-276 55t-236 160q-104 104 -159.5 236.5t-55.5 277.5q0 144 55.5 277t159.5 239q102 104 232 157.5t280 53.5z" />
    <glyph glyph-name="trademark" unicode="&#x2122;" horiz-adv-x="1706" 
d="M827 1452h88l181 -455l168 455h86v-526h-47v489l-185 -489h-45l-196 489v-489h-50v526zM285 1452h409v-41h-174v-485h-57v485h-178v41z" />
    <glyph glyph-name="acute" unicode="&#xb4;" 
d="M397 1196l209 328h109l-254 -328h-64z" />
    <glyph glyph-name="dieresis" unicode="&#xa8;" 
d="M623 1282v115h94v-115h-94zM307 1282v115h92v-115h-92z" />
    <glyph glyph-name="notequal" unicode="&#x2260;" horiz-adv-x="1706" 
d="M1219 1147l51 -39l-228 -289h410v-63h-446l-226 -291h672v-64h-711l-254 -327l-51 39l228 288h-410v64h446l226 291h-672v63h711z" />
    <glyph glyph-name="AE" unicode="&#xc6;" horiz-adv-x="1946" 
d="M977 494h-701l-227 -494h-74l678 1473h1217v-62h-826v-614h756v-62h-756v-672h848v-63h-915v494zM977 555v856h-279l-393 -856h672z" />
    <glyph glyph-name="Oslash" unicode="&#xd8;" horiz-adv-x="1518" 
d="M305 254l864 1018q-71 85 -174 127.5t-239 42.5q-270 0 -424 -188t-154 -519q0 -145 32 -266t95 -215zM74 -20l184 219q-77 106 -114.5 238.5t-37.5 297.5q0 363 174 565.5t484 202.5q148 0 259.5 -43.5t193.5 -132.5l178 205l47 -45l-182 -213q76 -110 113.5 -244
t37.5 -295q0 -362 -175.5 -566t-485.5 -204q-136 0 -247 46t-206 141l-176 -211zM342 203q82 -89 185 -131.5t233 -42.5q271 0 425 188t154 518q0 150 -33 270.5t-100 215.5z" />
    <glyph glyph-name="infinity" unicode="&#x221e;" horiz-adv-x="1706" 
d="M881 557q55 -109 127.5 -162t165.5 -53q108 0 179.5 82t71.5 207q0 124 -65 205.5t-164 81.5q-91 0 -163 -81.5t-152 -279.5zM827 672q-53 106 -126 159.5t-166 53.5q-111 0 -181.5 -80.5t-70.5 -206.5q0 -122 66 -204.5t163 -82.5q90 0 160.5 79t154.5 282zM872 518
q-71 -140 -148.5 -205t-172.5 -65q-129 0 -218 104t-89 260q0 164 78.5 263.5t207.5 99.5q99 0 172 -65t132 -205q70 147 148.5 212.5t182.5 65.5q121 0 210 -106t89 -259q0 -163 -79.5 -262.5t-208.5 -99.5q-96 0 -166.5 60t-137.5 202z" />
    <glyph glyph-name="plusminus" unicode="&#xb1;" horiz-adv-x="1706" 
d="M254 133h1198v-63h-1198v63zM823 1151h62v-356h567v-64h-567v-356h-62v356h-569v64h569v356z" />
    <glyph glyph-name="lessequal" unicode="&#x2264;" horiz-adv-x="1706" 
d="M264 119h1176v-62h-1176v62zM1440 1161v-69l-1073 -365l1073 -365v-69l-1176 407v54z" />
    <glyph glyph-name="greaterequal" unicode="&#x2265;" horiz-adv-x="1706" 
d="M266 119h1174v-62h-1174v62zM266 1161l1174 -407v-54l-1174 -407v69l1073 365l-1073 365v69z" />
    <glyph glyph-name="yen" unicode="&#xa5;" horiz-adv-x="1085" 
d="M508 0v606h-506v51h481l-102 158h-379v51h342l-342 527h76l467 -717l461 717h75l-340 -527h340v-51h-376l-103 -158h479v-51h-506v-606h-67z" />
    <glyph glyph-name="mu" unicode="&#xb5;" horiz-adv-x="1040" 
d="M201 1057h67l-123 -584q-11 -54 -16.5 -94.5t-5.5 -71.5q0 -131 67 -202.5t189 -71.5q133 0 239 124.5t152 338.5l119 561h69l-192 -887q-3 -15 -4.5 -30.5t-1.5 -28.5q0 -38 19 -55t61 -17q14 0 21.5 0.5t14.5 1.5l-12 -61q-10 -3 -20.5 -4t-30.5 -1q-60 0 -90.5 28.5
t-30.5 84.5q0 12 2.5 30.5t7.5 46.5q-62 -100 -149 -151t-197 -51q-107 0 -180 54t-96 151l-125 -594h-70z" />
    <glyph glyph-name="partialdiff" unicode="&#x2202;" horiz-adv-x="1014" 
d="M748 565q10 63 15 134.5t5 162.5q0 209 -35.5 298t-116.5 89q-41 0 -91 -82t-107 -82q-31 0 -50.5 19.5t-19.5 48.5q0 58 57 99.5t140 41.5q153 0 244.5 -141.5t91.5 -380.5q0 -349 -126.5 -574t-314.5 -225q-130 0 -213.5 101t-83.5 264q0 182 105 306t256 124
q98 0 157.5 -49.5t86.5 -153.5zM715 453q0 124 -49.5 190t-141.5 66q-120 0 -194 -124t-74 -329q0 -118 48.5 -179t141.5 -61q117 0 193 124t76 313z" />
    <glyph glyph-name="summation" unicode="&#x2211;" horiz-adv-x="1235" 
d="M39 1473h1178v-78h-1086l750 -834l-803 -878h1122v-76h-1200v112l770 846l-731 817v91z" />
    <glyph glyph-name="product" unicode="&#x220f;" horiz-adv-x="1454" 
d="M168 1473h1120v-1866h-71v1794h-977v-1794h-72v1866z" />
    <glyph glyph-name="pi" unicode="&#x3c0;" horiz-adv-x="1155" 
d="M410 1012l-213 -1012h-70l215 1012h-88q-74 0 -117 -38.5t-55 -115.5h-62q25 118 81.5 163.5t195.5 45.5h815l-8 -55h-203l-135 -650q-12 -57 -19.5 -108t-7.5 -76q0 -65 32 -96t99 -31q18 0 34 3t34 9l-12 -61q-29 -8 -45.5 -11t-30.5 -3q-81 0 -128.5 48t-47.5 130
q0 50 12.5 130t44.5 230l103 486h-424z" />
    <glyph glyph-name="integral" unicode="&#x222b;" horiz-adv-x="877" 
d="M705 1544q56 0 91 -30.5t35 -77.5q0 -39 -23 -63.5t-58 -24.5q-80 0 -104.5 55t-31.5 55q-110 0 -116 -624q-2 -184 -4 -289q-11 -506 -85.5 -711t-236.5 -205q-56 0 -93.5 30.5t-37.5 72.5t27 69t69 27q67 0 92 -57.5t35 -57.5q110 0 118 786q1 64 1 97q5 510 80.5 729
t241.5 219z" />
    <glyph glyph-name="ordfeminine" unicode="&#xaa;" horiz-adv-x="778" 
d="M612 1155q-19 -23 -158 -39l-48 -6q-171 -20 -237.5 -61.5t-66.5 -120.5q0 -83 53 -127.5t150 -44.5q64 0 124 19t103 52q45 38 62.5 84t17.5 133v111zM760 725q-4 0 -12 -1q-23 -3 -31 -3q-56 0 -80.5 31.5t-24.5 103.5q-48 -70 -131.5 -107.5t-189.5 -37.5
q-107 0 -172.5 57t-65.5 152q0 98 71.5 150t246.5 75q32 4 89 11q152 16 152 75v63q0 76 -55 116t-160 40q-120 0 -189 -48t-75 -136h-45q5 104 86 164.5t217 60.5q83 0 142.5 -22t91.5 -64q18 -25 26 -56.5t8 -97.5v-32v-330q0 -80 15 -104.5t55 -24.5q12 0 18.5 0.5
t12.5 0.5v-36z" />
    <glyph glyph-name="ordmasculine" unicode="&#xba;" horiz-adv-x="838" 
d="M117 1100q0 -163 81 -256.5t220 -93.5q140 0 221.5 93.5t81.5 256.5q0 161 -82 254.5t-221 93.5t-220 -93.5t-81 -254.5zM68 1100q0 181 93.5 285t256.5 104t257.5 -104.5t94.5 -284.5q0 -181 -94.5 -286t-257.5 -105t-256.5 104.5t-93.5 286.5z" />
    <glyph glyph-name="Omega" unicode="&#x3a9;" horiz-adv-x="1563" 
d="M1057 76h352v-76h-555v47q248 143 372 328t124 411q0 290 -160 472t-410 182t-408.5 -182t-158.5 -472q0 -225 123.5 -409.5t372.5 -329.5v-47h-555v76h352q-194 144 -285.5 315t-91.5 389q0 321 185 527t466 206q282 0 467 -206.5t185 -528.5q0 -216 -91.5 -387
t-283.5 -315z" />
    <glyph glyph-name="ae" unicode="&#xe6;" horiz-adv-x="1788" 
d="M879 584h759v10q0 194 -101.5 314t-262.5 120q-170 0 -277.5 -120t-117.5 -324zM815 594q-44 -24 -209 -43q-42 -5 -65 -8q-227 -28 -315.5 -86.5t-88.5 -173.5q0 -117 70 -182.5t194 -65.5q87 0 169.5 28.5t138.5 77.5q59 52 82.5 116.5t23.5 193.5v143zM858 258
q-44 -130 -171.5 -208.5t-297.5 -78.5q-143 0 -231 83.5t-88 217.5q0 142 96.5 216.5t327.5 105.5q36 5 101 13q220 27 220 110v90q0 111 -71.5 166t-215.5 55q-161 0 -248.5 -64.5t-105.5 -197.5h-59q6 148 118.5 233.5t303.5 85.5q154 0 241.5 -58.5t104.5 -172.5
q61 113 158 172t221 59q209 0 327.5 -138.5t118.5 -383.5v-39h-829v-20q0 -212 106.5 -343.5t276.5 -131.5q129 0 224 74t138 208h64q-43 -161 -155 -250.5t-271 -89.5q-146 0 -248 72.5t-156 214.5z" />
    <glyph glyph-name="oslash" unicode="&#xf8;" horiz-adv-x="1116" 
d="M274 154q57 -64 126 -94.5t159 -30.5q186 0 294 133.5t108 365.5q0 106 -20 188t-58 136zM238 201l608 700q-55 64 -128 95.5t-167 31.5q-180 0 -287.5 -136t-107.5 -368q0 -99 20.5 -181t61.5 -142zM61 -4l132 156q-53 76 -78 167.5t-25 206.5q0 260 126 409.5
t343 149.5q103 0 183.5 -33t146.5 -102l123 144l43 -41l-129 -150q53 -76 77.5 -163.5t24.5 -198.5q0 -269 -124 -419.5t-345 -150.5q-101 0 -183.5 33.5t-146.5 99.5l-127 -147z" />
    <glyph glyph-name="questiondown" unicode="&#xbf;" horiz-adv-x="948" 
d="M530 1112q-1 -58 -6.5 -109t-15.5 -98q-10 -45 -35 -86t-96 -114q-16 -17 -54 -51q-98 -89 -145 -156q-24 -35 -35.5 -75.5t-11.5 -90.5q0 -143 89 -220t253 -77t254 99t90 280v6h68q0 -212 -112 -330.5t-312 -118.5q-181 0 -290.5 97t-109.5 258q0 60 17 115t51 104
q52 74 155 165q34 30 48 44q59 59 80.5 94t29.5 74q9 39 14.5 87.5t8.5 102.5h65zM537 1475v-177h-80v177h80z" />
    <glyph glyph-name="exclamdown" unicode="&#xa1;" horiz-adv-x="629" 
d="M344 1470v-180h-70v180h70zM334 1102l18 -1102h-76l9 1102h49z" />
    <glyph glyph-name="logicalnot" unicode="&#xac;" horiz-adv-x="1706" 
d="M254 854h1198v-502h-59v439h-1139v63z" />
    <glyph glyph-name="radical" unicode="&#x221a;" horiz-adv-x="1251" 
d="M1083 1616h168v-51h-133l-596 -1606h-20l-332 915l-107 -36l-14 36l215 76l285 -774z" />
    <glyph glyph-name="florin" unicode="&#x192;" horiz-adv-x="1067" 
d="M479 784h-164v62h179l65 315q30 138 89.5 200t160.5 62q29 0 58.5 -6t60.5 -18l-10 -56q-31 11 -56 16t-49 5q-79 0 -122 -50.5t-70 -178.5l-62 -289h184v-62h-196l-201 -940q-30 -138 -89.5 -200t-160.5 -62q-29 0 -59.5 6.5t-61.5 18.5l13 55q30 -10 55.5 -15t48.5 -5
q79 0 122 49.5t71 179.5z" />
    <glyph glyph-name="approxequal" unicode="&#x2248;" horiz-adv-x="1706" 
d="M1530 573v-71q-105 -74 -201.5 -111t-185.5 -37q-110 0 -299 71t-279 71q-81 0 -168.5 -36t-218.5 -126v74q102 73 198.5 110t188.5 37q102 0 290.5 -70.5t287.5 -70.5q83 0 171 35.5t216 123.5zM1530 887v-74q-105 -74 -201.5 -110.5t-185.5 -36.5q-110 0 -299 70.5
t-279 70.5q-83 0 -171 -35.5t-216 -124.5v72q102 74 198.5 110.5t188.5 36.5q102 0 290.5 -70.5t287.5 -70.5q81 0 168.5 35.5t218.5 126.5z" />
    <glyph glyph-name="Delta" unicode="&#x2206;" horiz-adv-x="1303" 
d="M651 1417l-540 -1331h1081zM594 1473h115l606 -1473h-1327z" />
    <glyph glyph-name="guillemotleft" unicode="&#xab;" horiz-adv-x="758" 
d="M344 209l-256 323l256 308h82l-250 -308l250 -323h-82zM594 209l-256 323l256 308h84l-254 -308l254 -323h-84z" />
    <glyph glyph-name="guillemotright" unicode="&#xbb;" horiz-adv-x="758" 
d="M414 840l256 -326l-256 -305h-82l250 305l-250 326h82zM164 840l256 -326l-256 -305h-84l254 305l-254 326h84z" />
    <glyph glyph-name="ellipsis" unicode="&#x2026;" horiz-adv-x="2048" 
d="M309 0v178h66v-178h-66zM991 0v178h66v-178h-66zM1675 0v178h66v-178h-66z" />
    <glyph glyph-name="nonbreakingspace" unicode="&#xa0;" horiz-adv-x="1067" 
 />
    <glyph glyph-name="Agrave" unicode="&#xc0;" horiz-adv-x="1176" 
d="M-12 0l569 1473h78l559 -1473h-68l-190 502h-686l-193 -502h-69zM274 563h637l-315 830zM725 1616h-64l-254 328h109z" />
    <glyph glyph-name="Atilde" unicode="&#xc3;" horiz-adv-x="1176" 
d="M-12 0l569 1473h78l559 -1473h-68l-190 502h-686l-193 -502h-69zM274 563h637l-315 830zM876 1847q-27 -75 -62.5 -108t-90.5 -33q-14 0 -31.5 2.5t-35.5 7.5l-114 27q-12 3 -24.5 4.5t-26.5 1.5q-28 0 -50 -15.5t-42 -51.5h-55q21 72 58.5 106.5t94.5 34.5q15 0 49 -7
q5 -1 7 -1l114 -27q21 -5 35.5 -7.5t24.5 -2.5q32 0 54 17t38 52h57z" />
    <glyph glyph-name="Otilde" unicode="&#xd5;" horiz-adv-x="1518" 
d="M178 735q0 -330 154 -518t426 -188q271 0 426 188t155 518q0 331 -155 520t-426 189t-425.5 -188.5t-154.5 -520.5zM106 735q0 360 174 565t478 205t478.5 -205.5t174.5 -564.5q0 -358 -174 -563t-479 -205q-304 0 -478 204.5t-174 563.5zM1026 1847q-27 -75 -62.5 -108
t-90.5 -33q-14 0 -31.5 2.5t-35.5 7.5l-114 27q-12 3 -24.5 4.5t-26.5 1.5q-28 0 -50 -15.5t-42 -51.5h-55q21 72 58.5 106.5t94.5 34.5q15 0 49 -7q5 -1 7 -1l114 -27q21 -5 35.5 -7.5t24.5 -2.5q32 0 54 17t38 52h57z" />
    <glyph glyph-name="OE" unicode="&#x152;" horiz-adv-x="2140" 
d="M1171 205v1065q-61 83 -169.5 128.5t-245.5 45.5q-270 0 -424 -189t-154 -520q0 -330 154 -518t426 -188q134 0 237 43.5t176 132.5zM1171 0v117q-81 -75 -184 -112.5t-229 -37.5q-305 0 -478.5 204.5t-173.5 563.5q0 361 174.5 566.5t481.5 205.5q129 0 230.5 -35
t178.5 -106v107h900v-64h-830v-610h758v-64h-758v-672h850v-63h-920z" />
    <glyph glyph-name="oe" unicode="&#x153;" horiz-adv-x="1942" 
d="M1028 584h758v24q0 188 -101 304t-262 116q-170 0 -279.5 -122t-115.5 -322zM156 528q0 -232 107.5 -365.5t293.5 -133.5t295 133.5t109 365.5q0 233 -109 366.5t-295 133.5t-293.5 -133.5t-107.5 -366.5zM995 307q-50 -164 -162 -250t-276 -86q-217 0 -342 149t-125 408
t125 408t342 149q167 0 279.5 -86.5t156.5 -248.5q45 162 154 248.5t268 86.5q205 0 326 -139.5t121 -378.5q0 -7 -1 -21.5t-1 -21.5h-834q0 -226 106.5 -360.5t282.5 -134.5q130 0 225 74t138 208h61q-37 -157 -151 -248.5t-273 -91.5t-267 86.5t-153 249.5z" />
    <glyph glyph-name="endash" unicode="&#x2013;" 
d="M0 508v43h1024v-43h-1024z" />
    <glyph glyph-name="emdash" unicode="&#x2014;" horiz-adv-x="2048" 
d="M0 551h2048v-43h-2048v43z" />
    <glyph glyph-name="quotedblleft" unicode="&#x201c;" horiz-adv-x="780" 
d="M643 1073h-72l-143 400h72zM350 1073h-71l-144 400h70z" />
    <glyph glyph-name="quotedblright" unicode="&#x201d;" horiz-adv-x="780" 
d="M428 1073l145 400h70l-143 -400h-72zM135 1073l144 400h69l-143 -400h-70z" />
    <glyph glyph-name="quoteleft" unicode="&#x2018;" horiz-adv-x="485" 
d="M350 1073h-71l-144 400h70z" />
    <glyph glyph-name="quoteright" unicode="&#x2019;" horiz-adv-x="485" 
d="M135 1073l144 400h69l-143 -400h-70z" />
    <glyph glyph-name="divide" unicode="&#xf7;" horiz-adv-x="1706" 
d="M854 362q38 0 64 -25.5t26 -64.5q0 -37 -26.5 -64.5t-63.5 -27.5q-38 0 -65 26.5t-27 63.5q0 38 27.5 65t64.5 27zM254 641h1198v-61h-1198v61zM854 1040q37 0 63.5 -27t26.5 -65t-26 -64t-64 -26q-39 0 -65.5 26t-26.5 64q0 37 27.5 64.5t64.5 27.5z" />
    <glyph glyph-name="lozenge" unicode="&#x25ca;" horiz-adv-x="1012" 
d="M506 1409l-385 -817l385 -825l385 825zM506 1653l500 -1061l-500 -1069l-500 1069z" />
    <glyph glyph-name="ydieresis" unicode="&#xff;" horiz-adv-x="895" 
d="M416 -162q-59 -154 -111 -209t-129 -55q-25 0 -42.5 3t-31.5 9v62q22 -6 41 -9.5t35 -3.5q49 0 81.5 28.5t57.5 94.5l91 234l-396 1071h64l366 -987l367 987h70zM560 1282v115h94v-115h-94zM244 1282v115h92v-115h-92z" />
    <glyph glyph-name="Ydieresis" unicode="&#x178;" horiz-adv-x="1085" 
d="M508 0v651l-506 822h78l465 -752l459 752h77l-506 -826v-647h-67zM654 1702v115h94v-115h-94zM338 1702v115h92v-115h-92z" />
    <glyph glyph-name="fraction" unicode="&#x2215;" horiz-adv-x="342" 
d="M-344 -33l952 1465h78l-952 -1465h-78z" />
    <glyph glyph-name="currency" unicode="&#xa4;" horiz-adv-x="1241" 
d="M623 1217q-138 0 -235 -97t-97 -233q0 -138 97 -235t235 -97q137 0 234 97t97 235q0 137 -96.5 233.5t-234.5 96.5zM152 1411l206 -207q60 48 125 71t138 23q72 0 138 -23.5t126 -70.5l205 207l59 -59l-207 -205q45 -58 68.5 -124.5t23.5 -137.5q0 -73 -23 -138.5
t-69 -123.5l207 -205l-59 -60l-205 207q-58 -45 -125 -68.5t-139 -23.5q-74 0 -139 23t-124 69l-206 -207l-58 60l207 205q-45 57 -68.5 123.5t-23.5 138.5q0 71 23.5 137.5t68.5 124.5l-207 205z" />
    <glyph glyph-name="guilsinglleft" unicode="&#x2039;" horiz-adv-x="508" 
d="M344 209l-256 323l256 308h82l-250 -308l250 -323h-82z" />
    <glyph glyph-name="guilsinglright" unicode="&#x203a;" horiz-adv-x="508" 
d="M80 209l252 305l-252 326h84l256 -326l-256 -305h-84z" />
    <glyph glyph-name="fi" unicode="&#xf001;" horiz-adv-x="858" 
d="M647 0v1063h64v-1063h-64zM647 1298v172h64v-172h-64zM455 1425q-6 0 -18.5 1t-18.5 1q-85 0 -115.5 -40t-30.5 -173v-151h179v-59h-179v-1004h-63v1004h-148v59h148v149q0 158 42 213.5t155 55.5q18 0 28.5 -0.5t19.5 -1.5z" />
    <glyph glyph-name="fl" unicode="&#xf002;" horiz-adv-x="858" 
d="M647 0v1470h64v-1470h-64zM455 1425q-6 0 -18.5 1t-18.5 1q-85 0 -115.5 -40t-30.5 -173v-151h179v-59h-179v-1004h-63v1004h-148v59h148v149q0 158 42 213.5t155 55.5q18 0 28.5 -0.5t19.5 -1.5z" />
    <glyph glyph-name="daggerdbl" unicode="&#x2021;" 
d="M543 279h403v-60h-403v-434h-64v434h-401v60h401v698h-401v59h401v437h64v-437h403v-59h-403v-698z" />
    <glyph glyph-name="periodcentered" unicode="&#xb7;" horiz-adv-x="532" 
d="M266 629q-28 0 -47.5 19t-19.5 46q0 28 20 48t47 20q29 0 48.5 -19.5t19.5 -48.5q0 -27 -20 -46t-48 -19z" />
    <glyph glyph-name="quotesinglbase" unicode="&#x201a;" horiz-adv-x="485" 
d="M96 -217l144 399h71l-143 -399h-72z" />
    <glyph glyph-name="quotedblbase" unicode="&#x201e;" horiz-adv-x="780" 
d="M391 -217l144 399h69l-143 -399h-70zM96 -217l144 399h71l-143 -399h-72z" />
    <glyph glyph-name="perthousand" unicode="&#x2030;" horiz-adv-x="2284" 
d="M1575 279q0 130 91.5 221.5t221.5 91.5q131 0 222.5 -91.5t91.5 -221.5q0 -131 -91.5 -221.5t-222.5 -90.5q-129 0 -221 91.5t-92 220.5zM1638 279q0 -105 73.5 -178.5t176.5 -73.5q104 0 178 74t74 178q0 103 -74 176t-178 73t-177 -72.5t-73 -176.5zM780 279
q0 130 91.5 221.5t222.5 91.5q130 0 221.5 -91.5t91.5 -221.5q0 -131 -91.5 -221.5t-221.5 -90.5t-222 91.5t-92 220.5zM844 276q0 -103 73 -176t177 -73q103 0 176 73t73 176q0 104 -73 177t-176 73q-104 0 -177 -73t-73 -177zM299 -33l815 1506h74l-821 -1506h-68z
M82 1159q0 131 90.5 222.5t220.5 91.5q131 0 222.5 -91.5t91.5 -222.5q0 -130 -91.5 -221.5t-222.5 -91.5q-129 0 -220 92t-91 221zM145 1157q0 -104 73.5 -177t176.5 -73q104 0 177 73t73 177q0 105 -72.5 177.5t-177.5 72.5q-104 0 -177 -72.5t-73 -177.5z" />
    <glyph glyph-name="Acircumflex" unicode="&#xc2;" horiz-adv-x="1176" 
d="M-12 0l569 1473h78l559 -1473h-68l-190 502h-686l-193 -502h-69zM274 563h637l-315 830zM356 1616l205 328h98l203 -328h-62l-190 270l-190 -270h-64z" />
    <glyph glyph-name="Ecircumflex" unicode="&#xca;" horiz-adv-x="1161" 
d="M168 0v1473h899v-66h-829v-608h757v-64h-757v-669h849v-66h-919zM377 1616l205 328h98l203 -328h-62l-190 270l-190 -270h-64z" />
    <glyph glyph-name="Aacute" unicode="&#xc1;" horiz-adv-x="1176" 
d="M-12 0l569 1473h78l559 -1473h-68l-190 502h-686l-193 -502h-69zM274 563h637l-315 830zM495 1616l209 328h109l-254 -328h-64z" />
    <glyph glyph-name="Edieresis" unicode="&#xcb;" horiz-adv-x="1161" 
d="M168 0v1473h899v-66h-829v-608h757v-64h-757v-669h849v-66h-919zM742 1702v115h94v-115h-94zM426 1702v115h92v-115h-92z" />
    <glyph glyph-name="Egrave" unicode="&#xc8;" horiz-adv-x="1161" 
d="M168 0v1473h899v-66h-829v-608h757v-64h-757v-669h849v-66h-919zM746 1616h-64l-254 328h109z" />
    <glyph glyph-name="Iacute" unicode="&#xcd;" horiz-adv-x="424" 
d="M178 0v1473h68v-1473h-68zM98 1616l209 328h109l-254 -328h-64z" />
    <glyph glyph-name="Icircumflex" unicode="&#xce;" horiz-adv-x="424" 
d="M178 0v1473h68v-1473h-68zM-41 1616l205 328h98l203 -328h-62l-190 270l-190 -270h-64z" />
    <glyph glyph-name="Idieresis" unicode="&#xcf;" horiz-adv-x="424" 
d="M178 0v1473h68v-1473h-68zM324 1702v115h94v-115h-94zM8 1702v115h92v-115h-92z" />
    <glyph glyph-name="Igrave" unicode="&#xcc;" horiz-adv-x="424" 
d="M178 0v1473h68v-1473h-68zM328 1616h-64l-254 328h109z" />
    <glyph glyph-name="Oacute" unicode="&#xd3;" horiz-adv-x="1518" 
d="M178 735q0 -330 154 -518t426 -188q271 0 426 188t155 518q0 331 -155 520t-426 189t-425.5 -188.5t-154.5 -520.5zM106 735q0 360 174 565t478 205t478.5 -205.5t174.5 -564.5q0 -358 -174 -563t-479 -205q-304 0 -478 204.5t-174 563.5zM645 1616l209 328h109
l-254 -328h-64z" />
    <glyph glyph-name="Ocircumflex" unicode="&#xd4;" horiz-adv-x="1518" 
d="M178 735q0 -330 154 -518t426 -188q271 0 426 188t155 518q0 331 -155 520t-426 189t-425.5 -188.5t-154.5 -520.5zM106 735q0 360 174 565t478 205t478.5 -205.5t174.5 -564.5q0 -358 -174 -563t-479 -205q-304 0 -478 204.5t-174 563.5zM506 1616l205 328h98l203 -328
h-62l-190 270l-190 -270h-64z" />
    <glyph glyph-name="apple" unicode="&#xf000;" horiz-adv-x="1618" 
d="M836 1216q-1 6 -1.5 14t-0.5 23q0 124 95 229.5t236 131.5q1 -10 1.5 -23t0.5 -39q0 -131 -103.5 -234.5t-203.5 -103.5h-8q-3 0 -7.5 1t-8.5 1zM1505 403q-114 -247 -205 -342.5t-204 -95.5q-50 0 -131.5 33t-122.5 33q-45 0 -131 -33t-127 -33q-64 0 -128.5 44
t-129.5 132q-102 140 -157.5 295.5t-55.5 300.5q0 219 125 356.5t323 137.5q68 0 155 -34t124 -34q34 0 121.5 35t152.5 35q110 0 198 -40t161 -124q-102 -65 -151.5 -145.5t-49.5 -182.5q0 -113 60 -200t173 -138z" />
    <glyph glyph-name="Ograve" unicode="&#xd2;" horiz-adv-x="1518" 
d="M178 735q0 -330 154 -518t426 -188q271 0 426 188t155 518q0 331 -155 520t-426 189t-425.5 -188.5t-154.5 -520.5zM106 735q0 360 174 565t478 205t478.5 -205.5t174.5 -564.5q0 -358 -174 -563t-479 -205q-304 0 -478 204.5t-174 563.5zM875 1616h-64l-254 328h109z
" />
    <glyph glyph-name="Uacute" unicode="&#xda;" horiz-adv-x="1374" 
d="M158 1473h67v-926q0 -254 118 -386t345 -132q225 0 344 133t119 385v926h68v-959q0 -256 -141.5 -401.5t-389.5 -145.5q-251 0 -390.5 144t-139.5 403v959zM573 1616l209 328h109l-254 -328h-64z" />
    <glyph glyph-name="Ucircumflex" unicode="&#xdb;" horiz-adv-x="1374" 
d="M158 1473h67v-926q0 -254 118 -386t345 -132q225 0 344 133t119 385v926h68v-959q0 -256 -141.5 -401.5t-389.5 -145.5q-251 0 -390.5 144t-139.5 403v959zM434 1616l205 328h98l203 -328h-62l-190 270l-190 -270h-64z" />
    <glyph glyph-name="Ugrave" unicode="&#xd9;" horiz-adv-x="1374" 
d="M158 1473h67v-926q0 -254 118 -386t345 -132q225 0 344 133t119 385v926h68v-959q0 -256 -141.5 -401.5t-389.5 -145.5q-251 0 -390.5 144t-139.5 403v959zM803 1616h-64l-254 328h109z" />
    <glyph glyph-name="dotlessi" unicode="&#x131;" horiz-adv-x="358" 
d="M147 0v1063h64v-1063h-64z" />
    <glyph glyph-name="circumflex" unicode="&#x2c6;" 
d="M258 1196l205 328h98l203 -328h-62l-190 270l-190 -270h-64z" />
    <glyph glyph-name="tilde" unicode="&#x2dc;" 
d="M778 1427q-27 -75 -62.5 -108t-90.5 -33q-14 0 -31.5 2.5t-35.5 7.5l-114 27q-12 3 -24.5 4.5t-26.5 1.5q-28 0 -50 -15.5t-42 -51.5h-55q21 72 58.5 106.5t94.5 34.5q15 0 49 -7q5 -1 7 -1l114 -27q21 -5 35.5 -7.5t24.5 -2.5q32 0 54 17t38 52h57z" />
    <glyph glyph-name="macron" unicode="&#xaf;" 
d="M289 1305v71h446v-71h-446z" />
    <glyph glyph-name="breve" unicode="&#x2d8;" 
d="M256 1479l47 -1q9 -85 59 -125t150 -40q99 0 147.5 39t59.5 127l47 -1q-10 -123 -71.5 -181t-182.5 -58t-183 58t-73 182z" />
    <glyph glyph-name="dotaccent" unicode="&#x2d9;" 
d="M463 1280v121h100v-121h-100z" />
    <glyph glyph-name="ring" unicode="&#x2da;" 
d="M350 1360q0 -67 47 -113.5t115 -46.5t115 46.5t47 113.5q0 69 -46.5 115.5t-115.5 46.5q-68 0 -115 -47t-47 -115zM291 1360q0 92 64.5 157.5t156.5 65.5q94 0 158.5 -64.5t64.5 -158.5q0 -92 -64.5 -156.5t-158.5 -64.5q-92 0 -156.5 64.5t-64.5 156.5z" />
    <glyph glyph-name="cedilla" unicode="&#xb8;" 
d="M326 -414v56q60 -16 116 -23.5t109 -7.5q67 0 104 27.5t37 76.5q0 59 -39.5 87t-122.5 28q-18 0 -28 -0.5t-19 -1.5v172h41v-121h25q101 0 151 -38t50 -115q0 -82 -53 -126t-150 -44q-44 0 -93 6.5t-128 23.5z" />
    <glyph glyph-name="hungarumlaut" unicode="&#x2dd;" 
d="M573 1196l170 328h97l-215 -328h-52zM348 1196l152 328h96l-197 -328h-51z" />
    <glyph glyph-name="ogonek" unicode="&#x2db;" 
d="M545 0q-90 -76 -129 -133t-39 -109q0 -58 33 -84t106 -26h64v-56h-54q-100 0 -150 38.5t-50 115.5q0 62 41 124.5t127 129.5h51z" />
    <glyph glyph-name="caron" unicode="&#x2c7;" 
d="M258 1524h64l190 -271l190 271h62l-203 -328h-98z" />
    <glyph glyph-name="Lslash" unicode="&#x141;" horiz-adv-x="1042" 
d="M170 0v616l-154 -114l-34 47l188 143v781h70v-742l483 365l37 -47l-520 -392v-591h780v-66h-850z" />
    <glyph glyph-name="lslash" unicode="&#x142;" horiz-adv-x="358" 
d="M147 0v729l-127 -96l-36 45l163 125v667h64v-632l125 96l37 -45l-162 -125v-764h-64z" />
    <glyph glyph-name="Scaron" unicode="&#x160;" horiz-adv-x="1174" 
d="M92 449h68q12 -194 129.5 -307t306.5 -113q185 0 301.5 96t116.5 248q0 137 -76.5 210.5t-355.5 151.5q-10 3 -28 8q-251 70 -321 134q-51 46 -77.5 108t-26.5 135q0 174 120.5 279.5t321.5 105.5q209 0 336.5 -116.5t134.5 -315.5l-65 1q-3 169 -115 271.5t-295 102.5
q-172 0 -272 -88.5t-100 -239.5q0 -57 22.5 -107t67.5 -91q61 -58 291 -120q19 -5 28 -7q292 -79 385.5 -165t93.5 -239q0 -192 -133 -308t-356 -116q-217 0 -351 128t-151 354zM334 1944h64l190 -271l190 271h62l-203 -328h-98z" />
    <glyph glyph-name="scaron" unicode="&#x161;" horiz-adv-x="985" 
d="M166 315q26 -139 112 -210.5t228 -71.5t227.5 66t85.5 175q0 78 -50 126.5t-160 78.5q-19 5 -56 15q-259 66 -336 127q-41 32 -63.5 79.5t-22.5 104.5q0 124 101 202t264 78q152 0 248 -81.5t110 -223.5h-63q-17 121 -95 184.5t-209 63.5q-127 0 -207.5 -60.5
t-80.5 -154.5q0 -157 325 -242l21 -6q199 -51 270.5 -115t71.5 -178q0 -130 -107 -215.5t-272 -85.5q-177 0 -283.5 91t-122.5 253h64zM240 1524h64l190 -271l190 271h62l-203 -328h-98z" />
    <glyph glyph-name="Zcaron" unicode="&#x17d;" horiz-adv-x="1083" 
d="M18 0v68l947 1341h-867v64h940v-70l-946 -1342h971v-61h-1045zM289 1944h64l190 -271l190 271h62l-203 -328h-98z" />
    <glyph glyph-name="zcaron" unicode="&#x17e;" horiz-adv-x="895" 
d="M35 0v76l733 923h-692v64h762v-76l-734 -924h756v-63h-825zM195 1524h64l190 -271l190 271h62l-203 -328h-98z" />
    <glyph glyph-name="brokenbar" unicode="&#xa6;" 
d="M475 408h74v-758h-74v758zM475 1432h74v-758h-74v758z" />
    <glyph glyph-name="Eth" unicode="&#xd0;" horiz-adv-x="1411" 
d="M238 61h284q166 0 265 17.5t174 56.5q132 70 202 224t70 376q0 187 -49 324t-146 223q-77 69 -189 98t-327 29h-284v-592h497v-55h-497v-701zM168 0v762h-168v55h168v656h338q186 0 291.5 -17t181.5 -55q160 -79 243 -248.5t83 -417.5q0 -249 -83.5 -419t-242.5 -244
q-79 -38 -189.5 -55t-283.5 -17h-338z" />
    <glyph glyph-name="eth" unicode="&#xf0;" horiz-adv-x="1116" 
d="M868 928q-58 102 -131 182t-159 137l-281 -119l-21 54l242 102q-64 41 -138 77.5t-163 70.5l25 51q84 -32 167.5 -74t170.5 -96l254 110l24 -53l-219 -96q192 -148 289.5 -338.5t97.5 -417.5q0 -262 -121.5 -403.5t-347.5 -141.5q-225 0 -347 140t-122 397t123.5 400
t345.5 143q92 0 167 -30.5t144 -94.5zM557 997q-186 0 -293.5 -130t-107.5 -355t107.5 -355t293.5 -130t295 130t109 355t-109 355t-295 130z" />
    <glyph glyph-name="Yacute" unicode="&#xdd;" horiz-adv-x="1085" 
d="M508 0v651l-506 822h78l465 -752l459 752h77l-506 -826v-647h-67zM428 1616l209 328h109l-254 -328h-64z" />
    <glyph glyph-name="yacute" unicode="&#xfd;" horiz-adv-x="895" 
d="M416 -162q-59 -154 -111 -209t-129 -55q-25 0 -42.5 3t-31.5 9v62q22 -6 41 -9.5t35 -3.5q49 0 81.5 28.5t57.5 94.5l91 234l-396 1071h64l366 -987l367 987h70zM334 1196l209 328h109l-254 -328h-64z" />
    <glyph glyph-name="Thorn" unicode="&#xde;" horiz-adv-x="1200" 
d="M238 1118v-669h280q163 0 229 8.5t113 29.5q78 35 123 117.5t45 192.5q0 91 -37.5 159.5t-109.5 108.5q-51 29 -125.5 41t-235.5 12h-282zM238 0h-70v1473h70v-295h331q278 0 404.5 -95t126.5 -303q0 -103 -44.5 -189t-123.5 -136q-56 -36 -139.5 -52t-229.5 -16h-325
v-387z" />
    <glyph glyph-name="thorn" unicode="&#xfe;" horiz-adv-x="1171" 
d="M207 229v-651h-66v1892h66v-651q51 131 152.5 198.5t248.5 67.5q217 0 343 -149t126 -408t-125.5 -408t-343.5 -149q-144 0 -247.5 67t-153.5 191zM608 1028q-185 0 -293 -134t-108 -366t107.5 -365.5t293.5 -133.5q187 0 295.5 133.5t108.5 365.5t-109 366t-295 134z
" />
    <glyph glyph-name="minus" unicode="&#x2212;" horiz-adv-x="1706" 
d="M254 641h1198v-61h-1198v61z" />
    <glyph glyph-name="multiply" unicode="&#xd7;" horiz-adv-x="1706" 
d="M360 1147l492 -492l491 492l46 -45l-492 -492l492 -491l-46 -45l-491 491l-492 -491l-45 45l492 491l-492 492z" />
    <glyph glyph-name="onesuperior" unicode="&#xb9;" horiz-adv-x="705" 
d="M371 557v729q-43 -44 -97.5 -65t-126.5 -21h-12v36q104 3 163.5 41.5t72.5 113.5h45v-834h-45z" />
    <glyph glyph-name="twosuperior" unicode="&#xb2;" horiz-adv-x="705" 
d="M68 557v59q0 50 7.5 78t24.5 53q24 34 73.5 73t119.5 79q28 16 80 43q111 58 145 92q35 32 50.5 66.5t15.5 81.5q0 89 -58.5 141.5t-156.5 52.5q-104 0 -166 -57t-62 -152v-12h-47v10q0 115 74.5 182.5t200.5 67.5q117 0 190.5 -63.5t73.5 -165.5q0 -83 -45 -141
t-187 -134q-186 -102 -239 -158t-53 -124q0 -14 1 -21.5t3 -13.5h514v-37h-559z" />
    <glyph glyph-name="threesuperior" unicode="&#xb3;" horiz-adv-x="705" 
d="M61 811h48v-4q0 -111 61.5 -172.5t171.5 -61.5q112 0 183 59t71 152q0 99 -70 147t-215 48h-26v35h30q121 0 186.5 49.5t65.5 140.5q0 81 -56.5 126.5t-158.5 45.5q-103 0 -162 -55t-59 -152v-6h-41v4q0 118 71 182t201 64q114 0 183 -57.5t69 -151.5q0 -73 -41.5 -128
t-113.5 -77q86 -16 135 -72t49 -139q0 -112 -83 -182.5t-216 -70.5t-208 71t-75 199v6z" />
    <glyph glyph-name="onequarter" unicode="&#xbc;" horiz-adv-x="1686" 
d="M1487 0v207h-412v37l414 534h39v-536h98v-35h-98v-207h-41zM1487 242v473l-369 -473h369zM328 -33l952 1465h78l-952 -1465h-78zM354 612v680q-41 -41 -92.5 -60.5t-120.5 -19.5h-10v35q98 2 154.5 38t68.5 106h43v-779h-43z" />
    <glyph glyph-name="onehalf" unicode="&#xbd;" horiz-adv-x="1686" 
d="M1079 0v55q0 52 7.5 76.5t23.5 46.5q20 29 66 64.5t118 76.5q28 16 81 43q102 52 134 82q33 31 47.5 63.5t14.5 74.5q0 83 -56 133.5t-149 50.5q-99 0 -158 -53.5t-59 -143.5v-12h-45v10q0 108 71 171t191 63q113 0 182.5 -59.5t69.5 -155.5q0 -77 -43 -131t-178 -125
q-175 -93 -227 -145.5t-52 -116.5q0 -14 0.5 -20.5t2.5 -12.5h491v-35h-533zM328 -33l952 1465h78l-952 -1465h-78zM354 612v680q-41 -41 -92.5 -60.5t-120.5 -19.5h-10v35q98 2 154.5 38t68.5 106h43v-779h-43z" />
    <glyph glyph-name="threequarters" unicode="&#xbe;" horiz-adv-x="1686" 
d="M1487 0v207h-412v37l414 534h39v-536h98v-35h-98v-207h-41zM1487 242v473l-369 -473h369zM328 -33l952 1465h78l-952 -1465h-78zM59 848h43v-2q0 -103 59 -160t165 -57q108 0 175.5 54.5t67.5 141.5q0 91 -67 136t-203 45h-27v32h29q115 0 178.5 47t63.5 132
q0 75 -55.5 118t-151.5 43q-98 0 -154.5 -52t-56.5 -142v-6h-39v4q0 109 68 169t192 60q109 0 175.5 -53.5t66.5 -140.5q0 -70 -40.5 -121.5t-109.5 -69.5q83 -17 129.5 -69t46.5 -128q0 -106 -79 -171.5t-207 -65.5q-127 0 -198 66.5t-71 185.5v4z" />
    <glyph glyph-name="franc" unicode="&#x20a3;" horiz-adv-x="1610" 
d="M168 0v1473h860v-66h-790v-608h698v-64h-698v-735h-70zM1212 0v1063h66v-191q40 106 120 159.5t197 53.5v-63q-172 -7 -244.5 -120t-72.5 -386v-516h-66z" />
    <glyph glyph-name="Gbreve" unicode="&#x11e;" horiz-adv-x="1452" 
d="M1280 0v289q-80 -163 -212 -242.5t-323 -79.5q-294 0 -466.5 206.5t-172.5 561.5q0 357 171.5 563.5t467.5 206.5q242 0 392.5 -118t181.5 -332h-70q-35 186 -166 287.5t-338 101.5q-260 0 -413.5 -191t-153.5 -518q0 -326 153 -516t414 -190q245 0 387 148t142 403v63
h-486v62h551v-705h-59zM471 1899l47 -1q9 -85 59 -125t150 -40q99 0 147.5 39t59.5 127l47 -1q-10 -123 -71.5 -181t-182.5 -58t-183 58t-73 182z" />
    <glyph glyph-name="gbreve" unicode="&#x11f;" horiz-adv-x="1171" 
d="M965 528q0 233 -108 366.5t-294 133.5t-294.5 -133.5t-108.5 -366.5q0 -232 108.5 -365.5t294.5 -133.5t294 133.5t108 365.5zM965 227q-53 -123 -158.5 -190.5t-247.5 -67.5q-215 0 -340 150t-125 409q0 260 125.5 408.5t343.5 148.5q145 0 251.5 -69t150.5 -191v238h63
v-1006q0 -121 -15.5 -184.5t-51.5 -116.5q-62 -91 -170 -137.5t-256 -46.5q-180 0 -288 85.5t-110 227.5h62q6 -120 99 -188t253 -68q133 0 224.5 45.5t142.5 135.5q25 45 36 105t11 204v108zM330 1479l47 -1q9 -85 59 -125t150 -40q99 0 147.5 39t59.5 127l47 -1
q-10 -123 -71.5 -181t-182.5 -58t-183 58t-73 182z" />
    <glyph glyph-name="Idotaccent" unicode="&#x130;" horiz-adv-x="424" 
d="M178 0v1473h68v-1473h-68zM164 1700v121h100v-121h-100z" />
    <glyph glyph-name="Scedilla" unicode="&#x15e;" horiz-adv-x="1174" 
d="M92 449h68q12 -194 129.5 -307t306.5 -113q185 0 301.5 96t116.5 248q0 137 -76.5 210.5t-355.5 151.5q-10 3 -28 8q-251 70 -321 134q-51 46 -77.5 108t-26.5 135q0 174 120.5 279.5t321.5 105.5q209 0 336.5 -116.5t134.5 -315.5l-65 1q-3 169 -115 271.5t-295 102.5
q-172 0 -272 -88.5t-100 -239.5q0 -57 22.5 -107t67.5 -91q61 -58 291 -120q19 -5 28 -7q292 -79 385.5 -165t93.5 -239q0 -192 -133 -308t-356 -116q-217 0 -351 128t-151 354zM402 -414v56q60 -16 116 -23.5t109 -7.5q67 0 104 27.5t37 76.5q0 59 -39.5 87t-122.5 28
q-18 0 -28 -0.5t-19 -1.5v172h41v-121h25q101 0 151 -38t50 -115q0 -82 -53 -126t-150 -44q-44 0 -93 6.5t-128 23.5z" />
    <glyph glyph-name="scedilla" unicode="&#x15f;" horiz-adv-x="985" 
d="M166 315q26 -139 112 -210.5t228 -71.5t227.5 66t85.5 175q0 78 -50 126.5t-160 78.5q-19 5 -56 15q-259 66 -336 127q-41 32 -63.5 79.5t-22.5 104.5q0 124 101 202t264 78q152 0 248 -81.5t110 -223.5h-63q-17 121 -95 184.5t-209 63.5q-127 0 -207.5 -60.5
t-80.5 -154.5q0 -157 325 -242l21 -6q199 -51 270.5 -115t71.5 -178q0 -130 -107 -215.5t-272 -85.5q-177 0 -283.5 91t-122.5 253h64zM308 -414v56q60 -16 116 -23.5t109 -7.5q67 0 104 27.5t37 76.5q0 59 -39.5 87t-122.5 28q-18 0 -28 -0.5t-19 -1.5v172h41v-121h25
q101 0 151 -38t50 -115q0 -82 -53 -126t-150 -44q-44 0 -93 6.5t-128 23.5z" />
    <glyph glyph-name="Cacute" unicode="&#x106;" horiz-adv-x="1395" 
d="M1286 487q-14 -238 -168 -378t-401 -140q-289 0 -451 201.5t-162 562.5q0 364 165.5 568t459.5 204q225 0 378.5 -127.5t174.5 -333.5h-70q-30 190 -160 295t-335 105q-248 0 -394.5 -191t-146.5 -520t142.5 -516.5t388.5 -187.5q225 0 363 123.5t149 334.5h67zM608 1616
l209 328h109l-254 -328h-64z" />
    <glyph glyph-name="cacute" unicode="&#x107;" horiz-adv-x="1063" 
d="M971 342q-19 -171 -131.5 -271t-288.5 -100q-211 0 -336 150.5t-125 406.5q0 259 125 408t342 149q168 0 275 -88t129 -245h-66q-22 127 -113 201.5t-225 74.5q-186 0 -293.5 -133.5t-107.5 -366.5q0 -232 107.5 -365.5t293.5 -133.5q140 0 237 86t115 227h62zM438 1196
l209 328h109l-254 -328h-64z" />
    <glyph glyph-name="Ccaron" unicode="&#x10c;" horiz-adv-x="1395" 
d="M1286 487q-14 -238 -168 -378t-401 -140q-289 0 -451 201.5t-162 562.5q0 364 165.5 568t459.5 204q225 0 378.5 -127.5t174.5 -333.5h-70q-30 190 -160 295t-335 105q-248 0 -394.5 -191t-146.5 -520t142.5 -516.5t388.5 -187.5q225 0 363 123.5t149 334.5h67zM469 1944
h64l190 -271l190 271h62l-203 -328h-98z" />
    <glyph glyph-name="ccaron" unicode="&#x10d;" horiz-adv-x="1063" 
d="M971 342q-19 -171 -131.5 -271t-288.5 -100q-211 0 -336 150.5t-125 406.5q0 259 125 408t342 149q168 0 275 -88t129 -245h-66q-22 127 -113 201.5t-225 74.5q-186 0 -293.5 -133.5t-107.5 -366.5q0 -232 107.5 -365.5t293.5 -133.5q140 0 237 86t115 227h62zM299 1524
h64l190 -271l190 271h62l-203 -328h-98z" />
    <glyph glyph-name="dcroat" unicode="&#x111;" horiz-adv-x="1171" 
d="M969 528q0 233 -108 366.5t-294 133.5t-294.5 -134t-108.5 -366t108.5 -365.5t294.5 -133.5t294 133.5t108 365.5zM969 236q-51 -129 -154 -197t-248 -68q-217 0 -343 149.5t-126 407.5q0 259 126 408t343 149q144 0 250 -67.5t152 -188.5v363h-404v53h404v225h65v-225
h137v-53h-137v-1192h-65v236z" />
    <glyph glyph-name="sfthyphen" unicode="&#xad;" horiz-adv-x="702" 
d="M78 500v57h545v-57h-545z" />
    <glyph glyph-name="periodcentered" unicode="&#x2219;" horiz-adv-x="532" 
d="M266 629q-28 0 -47.5 19t-19.5 46q0 28 20 48t47 20q29 0 48.5 -19.5t19.5 -48.5q0 -27 -20 -46t-48 -19z" />
    </font>
</defs>
</svg>
